<svg width="19" height="22" viewBox="0 0 19 22" fill="none" xmlns="http://www.w3.org/2000/svg">
<path d="M12.4997 17V17.75C12.4997 18.5456 12.1837 19.3087 11.6211 19.8713C11.0585 20.4339 10.2954 20.75 9.49974 20.75C8.70409 20.75 7.94103 20.4339 7.37842 19.8713C6.81581 19.3087 6.49974 18.5456 6.49974 17.75V17M17.5472 15.4733C16.3435 14 15.4936 13.25 15.4936 9.18828C15.4936 5.46875 13.5943 4.14359 12.031 3.5C11.8233 3.41469 11.6279 3.21875 11.5646 3.00547C11.2904 2.07219 10.5216 1.25 9.49974 1.25C8.47787 1.25 7.70865 2.07266 7.43724 3.00641C7.37396 3.22203 7.17849 3.41469 6.97084 3.5C5.40568 4.14453 3.50818 5.465 3.50818 9.18828C3.50584 13.25 2.65599 14 1.45224 15.4733C0.953493 16.0836 1.39037 17 2.26271 17H16.7415C17.6091 17 18.0432 16.0808 17.5472 15.4733Z" stroke="black" stroke-opacity="0.9" stroke-width="1.5" stroke-linecap="round" stroke-linejoin="round"/>
</svg>
