<svg width="24" height="24" viewBox="0 0 24 24" fill="none" xmlns="http://www.w3.org/2000/svg">
<path d="M22 0H5.2C4.66976 0.000635143 4.16142 0.211553 3.78649 0.586488C3.41155 0.961423 3.20064 1.46976 3.2 2V4.8H2C1.46976 4.80064 0.961423 5.01155 0.586488 5.38649C0.211553 5.76142 0.000635143 6.26976 0 6.8L0 18.8C0.000635143 19.3302 0.211553 19.8386 0.586488 20.2135C0.961423 20.5884 1.46976 20.7994 2 20.8H2.8V22.9476C2.79929 23.1375 2.85 23.324 2.94677 23.4874C3.04354 23.6508 3.18274 23.785 3.3496 23.8756C3.51284 23.9655 3.69757 24.0089 3.88375 24.0011C4.06992 23.9934 4.25041 23.9347 4.4056 23.8316L9.0824 20.8H17.2C17.6609 20.7994 18.1075 20.64 18.4645 20.3485C18.8215 20.0571 19.0672 19.6514 19.16 19.2H22C22.5302 19.1994 23.0386 18.9884 23.4135 18.6135C23.7884 18.2386 23.9994 17.7302 24 17.2V2C23.9994 1.46976 23.7884 0.961423 23.4135 0.586488C23.0386 0.211553 22.5302 0.000635143 22 0ZM5.2 0.8H22C22.3183 0.8 22.6235 0.926428 22.8485 1.15147C23.0736 1.37652 23.2 1.68174 23.2 2V3.2H4V2C4 1.68174 4.12643 1.37652 4.35147 1.15147C4.57652 0.926428 4.88174 0.8 5.2 0.8ZM18.4 18.8C18.4 19.1183 18.2736 19.4235 18.0485 19.6485C17.8235 19.8736 17.5183 20 17.2 20H8.964C8.88681 19.9999 8.81124 20.0221 8.7464 20.064L3.9688 23.16C3.93405 23.1846 3.89297 23.1987 3.85044 23.2007C3.8079 23.2027 3.76569 23.1925 3.7288 23.1712C3.6887 23.1493 3.65543 23.1168 3.6327 23.0772C3.60996 23.0376 3.59864 22.9925 3.6 22.9468V20.4C3.6 20.2939 3.55786 20.1922 3.48284 20.1172C3.40783 20.0421 3.30609 20 3.2 20H2C1.68174 20 1.37652 19.8736 1.15147 19.6485C0.926428 19.4235 0.8 19.1183 0.8 18.8V6.8C0.8 6.48174 0.926428 6.17652 1.15147 5.95147C1.37652 5.72643 1.68174 5.6 2 5.6H17.2C17.5183 5.6 17.8235 5.72643 18.0485 5.95147C18.2736 6.17652 18.4 6.48174 18.4 6.8V18.8ZM22 18.4H19.2V6.8C19.1994 6.26976 18.9884 5.76142 18.6135 5.38649C18.2386 5.01155 17.7302 4.80064 17.2 4.8H4V4H23.2V17.2C23.2 17.5183 23.0736 17.8235 22.8485 18.0485C22.6235 18.2736 22.3183 18.4 22 18.4Z" fill="black" fill-opacity="0.8"/>
<path d="M5.6002 2.4001C5.82111 2.4001 6.0002 2.22101 6.0002 2.0001C6.0002 1.77918 5.82111 1.6001 5.6002 1.6001C5.37928 1.6001 5.2002 1.77918 5.2002 2.0001C5.2002 2.22101 5.37928 2.4001 5.6002 2.4001Z" fill="black" fill-opacity="0.8"/>
<path d="M7.1998 2.4001C7.42072 2.4001 7.5998 2.22101 7.5998 2.0001C7.5998 1.77918 7.42072 1.6001 7.1998 1.6001C6.97889 1.6001 6.7998 1.77918 6.7998 2.0001C6.7998 2.22101 6.97889 2.4001 7.1998 2.4001Z" fill="black" fill-opacity="0.8"/>
<path d="M8.80039 2.4001C9.0213 2.4001 9.20039 2.22101 9.20039 2.0001C9.20039 1.77918 9.0213 1.6001 8.80039 1.6001C8.57948 1.6001 8.40039 1.77918 8.40039 2.0001C8.40039 2.22101 8.57948 2.4001 8.80039 2.4001Z" fill="black" fill-opacity="0.8"/>
<path d="M12.4 2.4001H14.8C14.9061 2.4001 15.0078 2.35795 15.0828 2.28294C15.1579 2.20793 15.2 2.10618 15.2 2.0001C15.2 1.89401 15.1579 1.79227 15.0828 1.71726C15.0078 1.64224 14.9061 1.6001 14.8 1.6001H12.4C12.2939 1.6001 12.1922 1.64224 12.1172 1.71726C12.0421 1.79227 12 1.89401 12 2.0001C12 2.10618 12.0421 2.20793 12.1172 2.28294C12.1922 2.35795 12.2939 2.4001 12.4 2.4001Z" fill="black" fill-opacity="0.8"/>
<path d="M9.59961 6.80005C8.5391 6.80121 7.52236 7.22301 6.77247 7.97291C6.02258 8.7228 5.60077 9.73954 5.59961 10.8C5.59961 11.1183 5.72604 11.4235 5.95108 11.6486C6.17612 11.8736 6.48135 12 6.79961 12C7.11787 12 7.42309 11.8736 7.64814 11.6486C7.87318 11.4235 7.99961 11.1183 7.99961 10.8C7.99961 10.4836 8.09345 10.1743 8.26926 9.91114C8.44507 9.64802 8.69495 9.44294 8.98732 9.32184C9.27968 9.20074 9.60138 9.16906 9.91175 9.23079C10.2221 9.29253 10.5072 9.44491 10.731 9.66868C10.9547 9.89244 11.1071 10.1775 11.1689 10.4879C11.2306 10.7983 11.1989 11.12 11.0778 11.4123C10.9567 11.7047 10.7516 11.9546 10.4885 12.1304C10.2254 12.3062 9.91606 12.4 9.59961 12.4C9.28135 12.4 8.97613 12.5265 8.75108 12.7515C8.52604 12.9766 8.39961 13.2818 8.39961 13.6V14.4C8.39962 14.699 8.5112 14.9871 8.71249 15.2081C8.91379 15.4291 9.19031 15.567 9.48792 15.5948C9.78554 15.6226 10.0828 15.5383 10.3216 15.3585C10.5604 15.1787 10.7234 14.9162 10.7788 14.6224C11.6939 14.3403 12.4774 13.7391 12.987 12.9283C13.4965 12.1175 13.6982 11.1507 13.5555 10.2038C13.4127 9.25686 12.935 8.39256 12.2091 7.76796C11.4831 7.14336 10.5572 6.79992 9.59961 6.80005ZM10.3108 13.92C10.2224 13.9402 10.1435 13.9897 10.0869 14.0606C10.0304 14.1314 9.99961 14.2194 9.99961 14.3101V14.4C9.99961 14.5061 9.95747 14.6079 9.88245 14.6829C9.80744 14.7579 9.7057 14.8 9.59961 14.8C9.49352 14.8 9.39178 14.7579 9.31677 14.6829C9.24175 14.6079 9.19961 14.5061 9.19961 14.4V13.6C9.19961 13.494 9.24175 13.3922 9.31677 13.3172C9.39178 13.2422 9.49352 13.2 9.59961 13.2C10.0743 13.2 10.5383 13.0593 10.933 12.7956C11.3277 12.5319 11.6353 12.157 11.8169 11.7185C11.9986 11.2799 12.0461 10.7974 11.9535 10.3318C11.8609 9.86628 11.6323 9.43864 11.2967 9.10299C10.961 8.76735 10.5334 8.53877 10.0678 8.44616C9.60227 8.35356 9.11971 8.40109 8.68117 8.58274C8.24263 8.76439 7.8678 9.072 7.60408 9.46668C7.34037 9.86136 7.19961 10.3254 7.19961 10.8C7.19961 10.9061 7.15747 11.0079 7.08245 11.0829C7.00744 11.1579 6.9057 11.2 6.79961 11.2C6.69352 11.2 6.59178 11.1579 6.51677 11.0829C6.44175 11.0079 6.39961 10.9061 6.39961 10.8C6.39962 10.1977 6.56965 9.60751 6.89017 9.09746C7.21068 8.58742 7.66865 8.1782 8.2114 7.91687C8.75416 7.65555 9.35965 7.55273 9.95825 7.62024C10.5568 7.68775 11.1242 7.92286 11.5951 8.29851C12.0661 8.67416 12.4214 9.1751 12.6202 9.74373C12.8191 10.3123 12.8534 10.9255 12.7192 11.5128C12.5851 12.1001 12.2879 12.6375 11.8618 13.0634C11.4357 13.4892 10.8981 13.7862 10.3108 13.92Z" fill="black" fill-opacity="0.8"/>
<path d="M9.60039 16.3999C9.36305 16.3999 9.13105 16.4703 8.93371 16.6021C8.73637 16.734 8.58256 16.9214 8.49174 17.1407C8.40091 17.36 8.37715 17.6012 8.42345 17.834C8.46975 18.0668 8.58404 18.2806 8.75186 18.4484C8.91969 18.6163 9.13351 18.7305 9.36628 18.7768C9.59906 18.8231 9.84034 18.7994 10.0596 18.7086C10.2789 18.6177 10.4663 18.4639 10.5982 18.2666C10.73 18.0692 10.8004 17.8372 10.8004 17.5999C10.8004 17.2816 10.674 16.9764 10.4489 16.7514C10.2239 16.5263 9.91865 16.3999 9.60039 16.3999ZM9.60039 17.9999C9.52128 17.9999 9.44394 17.9764 9.37816 17.9325C9.31238 17.8885 9.26111 17.8261 9.23084 17.753C9.20056 17.6799 9.19264 17.5995 9.20808 17.5219C9.22351 17.4443 9.26161 17.373 9.31755 17.3171C9.37349 17.2611 9.44476 17.223 9.52235 17.2076C9.59995 17.1922 9.68037 17.2001 9.75346 17.2304C9.82656 17.2606 9.88903 17.3119 9.93298 17.3777C9.97693 17.4435 10.0004 17.5208 10.0004 17.5999C10.0004 17.706 9.95825 17.8077 9.88323 17.8827C9.80822 17.9578 9.70648 17.9999 9.60039 17.9999Z" fill="black" fill-opacity="0.8"/>
</svg>
