<svg width="24" height="24" viewBox="0 0 24 24" fill="none" xmlns="http://www.w3.org/2000/svg">
<g clip-path="url(#clip0_230_828)">
<path d="M11.9997 14.3504C12.4466 14.3508 12.8086 14.7129 12.8092 15.1599C12.8092 15.3439 12.9584 15.4933 13.1425 15.4933C13.3267 15.4933 13.4759 15.3439 13.4759 15.1599C13.4749 14.4733 13.0015 13.8779 12.333 13.722V13.3892C12.333 13.2051 12.1838 13.0559 11.9997 13.0559C11.8155 13.0559 11.6663 13.2051 11.6663 13.3892V13.7224C10.936 13.8922 10.449 14.5829 10.5344 15.3279C10.6196 16.0729 11.2498 16.6356 11.9997 16.6363C12.4396 16.644 12.793 17.0017 12.7952 17.4416C12.7975 17.8817 12.4478 18.2429 12.008 18.255C12.0052 18.255 12.0024 18.2545 11.9997 18.2545C11.9969 18.2545 11.9943 18.2548 11.9915 18.255C11.5478 18.25 11.1907 17.8893 11.1901 17.4457C11.1901 17.2615 11.0409 17.1123 10.8568 17.1123C10.6726 17.1123 10.5234 17.2615 10.5234 17.4457C10.5244 18.1321 10.9978 18.7275 11.6663 18.8834V19.2684C11.6663 19.4526 11.8155 19.6018 11.9997 19.6018C12.1838 19.6018 12.333 19.4526 12.333 19.2684V18.8834C13.0635 18.7134 13.5503 18.0229 13.4651 17.2779C13.3799 16.5329 12.7495 15.97 11.9997 15.9695C11.5527 15.9695 11.1901 15.6069 11.1901 15.1599C11.1901 14.7127 11.5527 14.3504 11.9997 14.3504Z" fill="black" fill-opacity="0.8"/>
<path d="M11.8742 5.80412H12.0102C13.0755 5.80282 13.9388 4.93952 13.9401 3.87421V3.07249C13.9388 2.00718 13.0755 1.14369 12.0102 1.14258H11.8742C10.8089 1.14369 9.94564 2.00718 9.94434 3.07249V3.87421C9.94545 4.93952 10.8089 5.80282 11.8742 5.80412ZM10.611 3.07249C10.6118 2.37512 11.1769 1.81 11.8742 1.80926H12.0098C12.7074 1.81 13.2725 2.37512 13.2733 3.07249V3.87421C13.2725 4.57158 12.7074 5.1367 12.0098 5.13726H11.8742C11.1769 5.13651 10.6118 4.5714 10.611 3.87421V3.07249Z" fill="black" fill-opacity="0.8"/>
<path d="M3.88615 17.2162H4.02194C5.08744 17.2149 5.95073 16.3516 5.95185 15.2863V14.4844C5.95073 13.419 5.08744 12.5557 4.02194 12.5544H3.88615C2.82065 12.5556 1.95717 13.4189 1.95605 14.4844V15.2861C1.95717 16.3516 2.82065 17.2151 3.88615 17.2162ZM2.62255 14.4844C2.62348 13.787 3.18841 13.2219 3.88578 13.2211H4.02175C4.71912 13.2219 5.28424 13.787 5.28498 14.4844V15.2861C5.28424 15.9834 4.71912 16.5486 4.02175 16.5493H3.88578C3.18841 16.5486 2.62348 15.9834 2.62255 15.2861V14.4844Z" fill="black" fill-opacity="0.8"/>
<path d="M19.8625 17.2162H19.9983C21.0636 17.2149 21.9271 16.3516 21.9282 15.2863V14.4844C21.9271 13.419 21.0636 12.5557 19.9983 12.5544H19.8625C18.797 12.5557 17.9337 13.419 17.9326 14.4844V15.2861C17.9337 16.3514 18.797 17.2149 19.8625 17.2162ZM18.5993 14.4844C18.6 13.787 19.1652 13.2219 19.8625 13.2211H19.9983C20.6957 13.2219 21.2608 13.787 21.2615 14.4844V15.2861C21.2608 15.9834 20.6957 16.5486 19.9983 16.5493H19.8625C19.1652 16.5486 18.6 15.9834 18.5993 15.2861V14.4844Z" fill="black" fill-opacity="0.8"/>
<path d="M21.9376 17.2784H21.5174C21.3782 17.2784 21.2538 17.3647 21.2051 17.495L20.7912 18.6023L20.4521 17.9968C20.3933 17.8917 20.2822 17.8266 20.1617 17.8264H19.7651C19.6405 17.8264 19.5265 17.8958 19.4692 18.0065L19.1885 18.548L18.8295 17.5035C18.7831 17.3688 18.6565 17.2784 18.5142 17.2784H18.0402C17.1295 17.2777 16.3263 17.8754 16.0653 18.7481L15.6041 18.4096C16.3194 17.1741 16.3504 15.6581 15.6864 14.3945C15.0225 13.1307 13.7566 12.2962 12.3334 12.184V11.4993L15.6696 11.4988C15.8536 11.4988 16.003 11.3496 16.003 11.1654V8.11941C16.0565 7.54165 15.8642 6.96817 15.4734 6.5394C15.0826 6.11063 14.5294 5.86621 13.9492 5.86621H13.5288C13.3896 5.86621 13.2652 5.95252 13.2165 6.08273L12.8026 7.19008L12.4635 6.5846C12.4047 6.4795 12.2934 6.41421 12.1727 6.41421H11.7763C11.6517 6.41421 11.5377 6.4836 11.4804 6.59409L11.1997 7.13558L10.8409 6.09129C10.7947 5.95661 10.668 5.86621 10.5256 5.86621H10.0518C9.4716 5.86621 8.9182 6.11045 8.5272 6.53921C8.13638 6.96798 7.94404 7.54165 7.99761 8.11941V11.1663C7.99761 11.3505 8.1468 11.4997 8.33095 11.4997L11.6668 11.4993V12.1842C10.2454 12.2999 8.98219 13.1351 8.31905 14.3976C7.6559 15.6601 7.68492 17.1741 8.39624 18.4101L7.93493 18.7485C7.67432 17.8759 6.87129 17.2781 5.96037 17.2786H5.54016C5.40121 17.2786 5.27677 17.3649 5.22803 17.4953L4.81396 18.6025L4.47504 17.9972C4.41607 17.8919 4.30484 17.8268 4.1843 17.8268H3.78771C3.66327 17.8268 3.54906 17.8962 3.49176 18.0067L3.21107 18.5482L2.85243 17.5035C2.80611 17.3688 2.67944 17.2784 2.53713 17.2784H2.06317C1.4828 17.2782 0.929405 17.5227 0.538587 17.9514C0.147582 18.3802 -0.0447572 18.9539 0.00881517 19.5316V22.5786C0.00881517 22.7627 0.158185 22.9119 0.342155 22.9119L7.68083 22.911C7.86498 22.911 8.01417 22.7618 8.01417 22.5776V19.5316C8.01473 19.5264 8.01473 19.5214 8.01528 19.5164L8.77478 18.9591C8.8637 19.0679 8.95782 19.1723 9.05716 19.2716C10.6842 20.8927 13.316 20.8927 14.9431 19.2716C15.0431 19.1715 15.1372 19.0673 15.2256 18.9591L15.9849 19.5164C15.9855 19.5214 15.9855 19.5266 15.986 19.5316V22.5787C15.986 22.7627 16.1352 22.9121 16.3194 22.9121L23.6579 22.9112C23.842 22.9112 23.9912 22.7618 23.9912 22.5778V19.5316C24.0448 18.9541 23.8526 18.3804 23.4618 17.9516C23.0712 17.5229 22.5178 17.2784 21.9376 17.2784ZM8.66243 8.06956C8.62262 7.67688 8.75116 7.28569 9.01586 6.99272C9.28056 6.69993 9.65687 6.53289 10.0516 6.53289H10.2876L10.8221 8.08853C10.8643 8.2113 10.9737 8.29836 11.1026 8.31194C11.2317 8.32533 11.3567 8.26283 11.4235 8.15159C11.4268 8.14564 11.4303 8.1395 11.4335 8.13336L11.9782 7.08238L12.5723 8.14322C12.6355 8.25651 12.759 8.32254 12.8885 8.31268C13.0178 8.30282 13.1298 8.21856 13.1752 8.09709L13.76 6.53289H13.9492C14.3439 6.53289 14.72 6.70012 14.9847 6.99291C15.2494 7.28569 15.3776 7.67688 15.338 8.06956C15.3368 8.08091 15.3363 8.09207 15.3363 8.10323V10.8323L8.66429 10.833V8.10323C8.66411 8.09207 8.66355 8.08072 8.66243 8.06956ZM7.34935 19.4818C7.34823 19.4929 7.34749 19.5043 7.34749 19.5155V22.2445L0.67568 22.2452V19.5156C0.67568 19.5043 0.674936 19.4931 0.67382 19.482C0.634198 19.0891 0.762549 18.6979 1.02725 18.4051C1.29195 18.1122 1.66844 17.9451 2.06317 17.9451H2.29904L2.83364 19.5009C2.87661 19.6259 2.98934 19.7137 3.12104 19.7247C3.25255 19.7357 3.37848 19.668 3.44154 19.5519C3.44266 19.5499 3.44377 19.5478 3.44489 19.5458L3.98954 18.4946L4.58367 19.5554C4.64711 19.6687 4.77043 19.7348 4.8999 19.7249C5.02937 19.715 5.14116 19.631 5.18674 19.5093L5.77138 17.9451H5.96037C6.3551 17.9451 6.73141 18.1123 6.99611 18.4051C7.26062 18.6979 7.38897 19.0891 7.34916 19.4818H7.34935ZM12.0001 19.8205C10.3386 19.8168 8.91076 18.6404 8.58914 17.0102C8.26771 15.3801 9.14216 13.7497 10.6779 13.1156C12.2136 12.4813 13.9836 13.0198 14.906 14.4019C15.8283 15.784 15.6466 17.625 14.4717 18.8C13.8171 19.4567 12.9272 19.824 12.0001 19.8205ZM23.3264 19.4818C23.3253 19.4929 23.3247 19.5043 23.3247 19.5155V22.2445L16.6527 22.2452V19.5156C16.6527 19.5043 16.6522 19.4931 16.651 19.482C16.6112 19.0891 16.7398 18.6979 17.0045 18.4051C17.2692 18.1122 17.6455 17.9451 18.0402 17.9451H18.2764L18.8109 19.5009C18.8514 19.6185 18.9539 19.7039 19.0769 19.7223C19.1998 19.7407 19.323 19.689 19.3959 19.5884C19.4057 19.5748 19.4147 19.5605 19.4223 19.5456L19.9669 18.4946L20.5611 19.5554C20.6245 19.6687 20.7478 19.7349 20.8773 19.7249C21.0066 19.715 21.1186 19.631 21.1641 19.5093L21.7488 17.9451H21.938C22.3327 17.9453 22.7088 18.1123 22.9735 18.4051C23.238 18.6979 23.3664 19.0891 23.3266 19.4818H23.3264Z" fill="black" fill-opacity="0.8"/>
</g>
<defs>
<clipPath id="clip0_230_828">
<rect width="24" height="24" fill="white"/>
</clipPath>
</defs>
</svg>
