<svg width="24" height="24" viewBox="0 0 24 24" fill="none" xmlns="http://www.w3.org/2000/svg">
<path d="M21.5797 15.0951C20.7859 14.6368 19.8151 14.7552 19.1545 15.3187L15.3341 13.113C15.4513 12.763 15.5157 12.389 15.5157 12C15.5157 11.611 15.4513 11.2371 15.3341 10.887L19.1544 8.68134C19.8246 9.25322 20.796 9.35737 21.5797 8.90489C22.587 8.32331 22.9334 7.03073 22.3518 6.02344C21.7702 5.01614 20.4776 4.66983 19.4703 5.25131C18.6598 5.71931 18.2941 6.62733 18.4503 7.46405L14.6296 9.66998C14.1335 9.11077 13.4627 8.70994 12.7032 8.55511V4.09781C13.5216 3.80756 14.1095 3.02602 14.1095 2.10938C14.1095 0.946266 13.1632 0 12.0001 0C10.837 0 9.89073 0.946266 9.89073 2.10938C9.89073 3.02602 10.4786 3.80756 11.297 4.09781V8.55511C10.5375 8.70989 9.86673 9.11077 9.37065 9.66998L5.54987 7.46405C5.70624 6.62686 5.34005 5.71912 4.52987 5.25131C3.52252 4.66983 2.22999 5.01614 1.64841 6.02344C1.06684 7.03073 1.4132 8.32331 2.42049 8.90489C3.20434 9.35742 4.17587 9.25298 4.8458 8.68134L8.66607 10.887C8.54893 11.2371 8.48448 11.611 8.48448 12C8.48448 12.389 8.54893 12.7629 8.66612 13.113L4.84566 15.3187C4.1851 14.7551 3.21432 14.6368 2.42049 15.0951C1.4132 15.6767 1.06684 16.9693 1.64841 17.9766C2.22713 18.979 3.51793 19.3328 4.52991 18.7486C5.34048 18.2806 5.70619 17.3727 5.54987 16.5359L9.37065 14.33C9.86673 14.8892 10.5375 15.29 11.297 15.4448V19.9021C10.4786 20.1924 9.89073 20.9739 9.89073 21.8906C9.89073 23.0537 10.837 24 12.0001 24C13.1632 24 14.1095 23.0537 14.1095 21.8906C14.1095 20.9739 13.5216 20.1924 12.7032 19.9021V15.4448C13.4627 15.2901 14.1335 14.8892 14.6296 14.33L18.4503 16.5359C18.2941 17.3723 18.6594 18.2805 19.4703 18.7486C20.4837 19.3336 21.7738 18.9777 22.3518 17.9766C22.9334 16.9693 22.587 15.6767 21.5797 15.0951ZM20.1735 6.46917C20.5093 6.2753 20.9401 6.3908 21.134 6.72656C21.3278 7.06233 21.2124 7.4932 20.8766 7.68708C20.5409 7.88095 20.1099 7.7655 19.9161 7.42969C19.7222 7.09392 19.8377 6.66305 20.1735 6.46917ZM4.08409 7.42969C3.89021 7.76545 3.45934 7.88086 3.12362 7.68708C2.78785 7.4932 2.6724 7.06233 2.86623 6.72656C3.0601 6.39075 3.49098 6.27534 3.8267 6.46917C4.16246 6.66305 4.27796 7.09392 4.08409 7.42969ZM3.82674 17.5308C3.49098 17.7247 3.0601 17.6092 2.86623 17.2734C2.6724 16.9377 2.78785 16.5068 3.12362 16.3129C3.45938 16.1191 3.89026 16.2345 4.08409 16.5703C4.27796 16.9061 4.16246 17.337 3.82674 17.5308ZM12.0001 1.40625C12.3878 1.40625 12.7032 1.72167 12.7032 2.10938C12.7032 2.49708 12.3878 2.8125 12.0001 2.8125C11.6124 2.8125 11.297 2.49708 11.297 2.10938C11.297 1.72167 11.6124 1.40625 12.0001 1.40625ZM12.0001 22.5938C11.6124 22.5938 11.297 22.2783 11.297 21.8906C11.297 21.5029 11.6124 21.1875 12.0001 21.1875C12.3878 21.1875 12.7032 21.5029 12.7032 21.8906C12.7032 22.2783 12.3878 22.5938 12.0001 22.5938ZM12.0001 14.1094C10.837 14.1094 9.89073 13.1631 9.89073 12C9.89073 10.8369 10.837 9.89062 12.0001 9.89062C13.1632 9.89062 14.1095 10.8369 14.1095 12C14.1095 13.1631 13.1632 14.1094 12.0001 14.1094ZM21.134 17.2734C20.9401 17.6092 20.5092 17.7247 20.1735 17.5308C19.8377 17.3369 19.7222 16.9061 19.9161 16.5703C20.11 16.2345 20.5409 16.1191 20.8766 16.3129C21.2124 16.5068 21.3278 16.9377 21.134 17.2734Z" fill="black" fill-opacity="0.8"/>
</svg>
