<svg width="24" height="24" viewBox="0 0 24 24" fill="none" xmlns="http://www.w3.org/2000/svg">
<path d="M16.39 7.61248C16.2436 7.46609 16.0062 7.46609 15.8598 7.61248L7.60979 15.8625C7.4634 16.0089 7.4634 16.2463 7.60979 16.3927C7.75825 16.5342 7.99159 16.5342 8.14004 16.3927L16.39 8.14273C16.5364 7.99629 16.5364 7.75892 16.39 7.61248Z" fill="black" fill-opacity="0.8"/>
<path d="M8.06544 7.53383C7.9184 7.38678 7.67999 7.38678 7.53294 7.53383C7.3859 7.68088 7.3859 7.91928 7.53294 8.06633L9.27669 9.81008C9.42252 9.95713 9.65999 9.95811 9.80704 9.81223C9.80779 9.81153 9.80849 9.81078 9.80919 9.81008C9.95624 9.66425 9.95722 9.42678 9.81135 9.27974C9.81065 9.27899 9.8099 9.27828 9.80919 9.27758L8.06544 7.53383ZM1.78044 7.93508C2.80133 8.6998 4.10202 8.98808 5.35044 8.72633L7.85732 11.2332C8.00357 11.3786 8.23982 11.3786 8.38607 11.2332C8.53148 11.087 8.53148 10.8507 8.38607 10.7045L5.73744 8.05133C5.64022 7.95631 5.49988 7.92008 5.36882 7.95608C3.39416 8.46655 1.37952 7.27953 0.869099 5.30488C0.732646 4.77706 0.714786 4.22563 0.816693 3.69008L0.827943 3.63383L2.72169 5.52758C3.18172 5.98841 3.92826 5.98902 4.38904 5.52899C4.38951 5.52852 4.38997 5.52805 4.39044 5.52758C4.39044 5.52758 5.52669 4.39508 5.52669 4.39133C5.97951 3.92928 5.98119 3.19039 5.53044 2.72633L3.67494 0.866329L3.63744 0.828829L3.68619 0.817579C5.68269 0.431095 7.61451 1.73624 8.00104 3.73274C8.10533 4.27156 8.0879 4.82684 7.94994 5.35808C7.91277 5.49008 7.94877 5.63183 8.04444 5.73008L10.6994 8.38845C10.8453 8.5355 11.0827 8.53648 11.2298 8.39061C11.2305 8.38991 11.2312 8.38916 11.2319 8.38845C11.379 8.24263 11.38 8.00516 11.2341 7.85811C11.2334 7.85736 11.2326 7.85666 11.2319 7.85595L8.72357 5.35095C9.23043 2.95602 7.69982 0.603641 5.30483 0.0967821C4.72321 -0.0263117 4.12274 -0.0311398 3.53919 0.0825789C3.11676 0.168032 2.84361 0.579782 2.92907 1.00222C2.95944 1.15245 3.03341 1.29041 3.14169 1.39883L5.00169 3.25883C5.1674 3.42645 5.1658 3.69664 4.99818 3.86234C4.99808 3.86244 4.99799 3.86249 4.99794 3.86258L3.85794 4.99883C3.6958 5.16561 3.42922 5.16936 3.26244 5.00722C3.25836 5.00324 3.25438 4.9992 3.25044 4.99508L1.39794 3.14258C1.09396 2.83822 0.600786 2.83794 0.296427 3.14192C0.185708 3.2525 0.110896 3.39388 0.0816927 3.54758C-0.240901 5.21488 0.419193 6.91972 1.78044 7.93508ZM2.21919 16.7813C3.10297 16.1159 4.24124 15.8883 5.31294 16.1626C5.44176 16.1963 5.57877 16.1592 5.67294 16.0651L13.9192 7.81883C14.0662 7.67178 14.0662 7.43338 13.9192 7.28633C13.7721 7.13928 13.5337 7.13928 13.3867 7.28633L5.29044 15.3863C2.9009 14.9045 0.573177 16.451 0.0913021 18.8405C-0.0201198 19.3931 -0.0246667 19.962 0.0779427 20.5163C0.156786 20.9341 0.559396 21.209 0.97724 21.1301C1.13136 21.101 1.27288 21.0256 1.38294 20.9138L3.21669 19.0801C3.37846 18.9149 3.6433 18.9116 3.80919 19.0726L4.92669 20.1901C5.08405 20.3574 5.08072 20.6193 4.91919 20.7826L3.08169 22.6201C2.8784 22.8246 2.8048 23.1247 2.89044 23.4001C2.9744 23.6699 3.20122 23.8707 3.47919 23.9213C3.74858 23.9734 4.02233 23.9997 4.29669 24.0001C6.73185 23.9959 8.70252 22.0183 8.6983 19.5832C8.69779 19.2895 8.66793 18.9966 8.60919 18.7088L9.56544 17.7563C9.71249 17.6093 9.71249 17.3709 9.56544 17.2238C9.4184 17.0768 9.17999 17.0768 9.03294 17.2238L7.93044 18.3263C7.83651 18.4221 7.79952 18.5601 7.83294 18.6901C8.1546 19.9387 7.79071 21.2644 6.87669 22.1738C6.02844 23.0371 4.79755 23.4064 3.61419 23.1526L5.45169 21.3113C5.90005 20.8524 5.90338 20.1205 5.45919 19.6576L4.34169 18.5401C3.88101 18.0866 3.14076 18.09 2.68419 18.5476L0.824943 20.4113L0.813693 20.3738C0.557521 19.0062 1.10296 17.612 2.21919 16.7813Z" fill="black" fill-opacity="0.8"/>
<path d="M16.4653 15.9376L14.7204 14.1898C14.5741 14.0432 14.3366 14.0431 14.1901 14.1895C14.19 14.1896 14.1899 14.1897 14.1898 14.1898C14.0439 14.3361 14.0439 14.5729 14.1898 14.7193C14.9338 15.4629 15.9358 16.4619 15.9392 16.4653C16.0874 16.6059 16.3198 16.6059 16.4679 16.4653C16.6118 16.3184 16.6107 16.0831 16.4653 15.9376ZM22.6978 16.4776C21.6371 15.422 20.1157 14.9722 18.6516 15.2814L16.1409 12.7708C15.9945 12.6246 15.7575 12.6246 15.6111 12.7708C15.4642 12.9168 15.4636 13.1543 15.6097 13.3011L15.6111 13.3025L18.2698 15.9613C18.3653 16.0557 18.5036 16.0928 18.6336 16.0588C20.577 15.546 22.5682 16.7058 23.081 18.6493C23.5937 20.5928 22.434 22.5839 20.4905 23.0967C18.547 23.6094 16.5558 22.4497 16.0431 20.5062C15.8815 19.8938 15.8825 19.2499 16.0461 18.638C16.0827 18.5065 16.0467 18.3654 15.9516 18.2675L13.2992 15.6118C13.1528 15.4652 12.9154 15.4651 12.7688 15.6115C12.7688 15.6116 12.7687 15.6117 12.7686 15.6118C12.622 15.7581 12.6219 15.9956 12.7683 16.1421L12.7686 16.1424L15.2747 18.6485C14.9727 20.1156 15.4261 21.6363 16.4822 22.6985C17.313 23.5308 18.4412 23.9977 19.6172 23.996C20.7802 24.0006 21.8967 23.5402 22.7184 22.7173C24.4336 20.9877 24.4244 18.1959 22.6978 16.4776ZM18.7086 8.61015C21.0941 9.09737 23.4229 7.55855 23.9101 5.17304C24.0238 4.61621 24.0288 4.0426 23.9248 3.4839C23.8727 3.20457 23.6708 2.97676 23.3998 2.8914C23.1256 2.80721 22.8273 2.88071 22.6236 3.08265L20.7786 4.92015C20.6187 5.08477 20.3557 5.08866 20.191 4.92882C20.1906 4.92845 20.1902 4.92802 20.1898 4.92765C20.1898 4.92765 19.0723 3.8139 19.0723 3.81015C18.9132 3.64351 18.9165 3.38021 19.0798 3.21765L20.9136 1.3839C21.1157 1.18032 21.1905 0.88257 21.1086 0.607648C21.0255 0.33418 20.7965 0.130086 20.5153 0.0788984C18.1184 -0.364773 15.8156 1.21866 15.372 3.61557C15.2693 4.16991 15.2739 4.73874 15.3853 5.2914L14.4478 6.22515C14.3008 6.3722 14.3008 6.6106 14.4478 6.75765C14.5949 6.9047 14.8333 6.9047 14.9803 6.75765L16.0641 5.6739C16.1582 5.57973 16.1953 5.44271 16.1616 5.3139C15.6652 3.35359 16.8519 1.36201 18.8123 0.865648C19.3227 0.736414 19.855 0.718742 20.3728 0.813898L20.4141 0.825148L18.5466 2.68515C18.089 3.14171 18.0856 3.88196 18.5391 4.34265L19.6566 5.46015C20.1157 5.91381 20.8553 5.91043 21.3103 5.45265L23.1853 3.62265C23.5533 5.60874 22.2416 7.51716 20.2555 7.88518C19.7358 7.98146 19.2014 7.96398 18.6891 7.8339C18.5591 7.79991 18.4208 7.83699 18.3253 7.9314L10.0941 16.1626C9.94781 16.31 9.94781 16.5478 10.0941 16.6951C10.243 16.8376 10.4776 16.8376 10.6266 16.6951L18.7086 8.61015Z" fill="black" fill-opacity="0.8"/>
<path d="M21.9139 20.0364L21.3927 18.0902C21.3574 17.9618 21.258 17.861 21.1302 17.8239L19.1839 17.3064C19.0551 17.2727 18.9181 17.3098 18.8239 17.4039L17.4027 18.8252C17.3086 18.9193 17.2715 19.0564 17.3052 19.1852L17.8227 21.1314C17.8598 21.2592 17.9606 21.3587 18.0889 21.3939C18.0889 21.3939 20.0314 21.9152 20.0352 21.9152C20.164 21.9481 20.3006 21.9111 20.3952 21.8177L21.8164 20.3964C21.9106 20.3022 21.9477 20.1652 21.9139 20.0364ZM20.0202 21.1352L18.4939 20.7264L18.0852 19.2002L19.1989 18.0864L20.7252 18.4952L21.1339 20.0177L20.0202 21.1352Z" fill="black" fill-opacity="0.8"/>
</svg>
