<svg width="24" height="24" viewBox="0 0 24 24" fill="none" xmlns="http://www.w3.org/2000/svg">
<g clip-path="url(#clip0_2107_10503)">
<path d="M10.0744 10.6056L7.53418 8.06533C7.46587 7.9946 7.42808 7.89988 7.42893 7.80155C7.42979 7.70323 7.46922 7.60917 7.53875 7.53965C7.60828 7.47012 7.70233 7.43068 7.80066 7.42983C7.89898 7.42897 7.99371 7.46677 8.06443 7.53508L10.6047 10.075L11.4946 9.1847L8.04193 5.7317C7.9955 5.68516 7.96212 5.62723 7.94514 5.56371C7.92816 5.5002 7.92817 5.43333 7.94518 5.36983C8.10367 4.76737 8.10674 4.13456 7.95412 3.53059C7.8015 2.92662 7.49817 2.37123 7.07251 1.91639C6.64685 1.46154 6.11277 1.1221 5.52023 0.929822C4.92769 0.737543 4.29606 0.698709 3.68443 0.816953L3.63343 0.828203L5.52906 2.7272C5.63933 2.83607 5.72689 2.96575 5.78665 3.10873C5.84641 3.2517 5.87718 3.40512 5.87718 3.56008C5.87718 3.71504 5.84641 3.86846 5.78665 4.01143C5.72689 4.1544 5.63933 4.28409 5.52906 4.39295L4.39243 5.52958C4.16776 5.74539 3.8682 5.86572 3.55667 5.8653C3.24514 5.86488 2.9459 5.74374 2.72181 5.52733L0.828059 3.63508L0.816059 3.68945C0.699607 4.30148 0.739897 4.93302 0.93318 5.52529C1.12646 6.11755 1.46645 6.65129 1.9215 7.07681C2.37655 7.50233 2.93187 7.8058 3.53575 7.95896C4.13964 8.11213 4.77246 8.11002 5.37531 7.95283C5.43855 7.93633 5.50501 7.93665 5.56809 7.95375C5.63117 7.97085 5.68868 8.00415 5.73493 8.05033L9.18231 11.4981L10.0744 10.6056Z" fill="white"/>
<path d="M18.3274 7.93211C18.3738 7.88573 18.4315 7.85233 18.4948 7.83522C18.5581 7.81811 18.6247 7.8179 18.6881 7.8346C19.2831 7.98619 19.9067 7.9855 20.5013 7.8326C21.096 7.6797 21.6425 7.37952 22.0906 6.95974C22.5387 6.53996 22.8738 6.01411 23.0651 5.43069C23.2564 4.84726 23.2977 4.22506 23.1852 3.62148L21.3102 5.45148C21.0919 5.67048 20.7959 5.79421 20.4867 5.79561C20.1775 5.79702 19.8804 5.67599 19.6601 5.45898L18.5426 4.3411C18.3244 4.12048 18.2026 3.82226 18.204 3.51193C18.2054 3.20159 18.3299 2.9045 18.5501 2.68586L20.4098 0.82473L20.3723 0.81498C19.7686 0.70328 19.1465 0.745269 18.5634 0.937079C17.9802 1.12889 17.4547 1.46435 17.0352 1.91258C16.6157 2.3608 16.3157 2.90738 16.1629 3.50196C16.01 4.09655 16.0093 4.72003 16.1607 5.31498C16.1768 5.37807 16.1762 5.44426 16.159 5.50706C16.1417 5.56985 16.1085 5.62708 16.0624 5.67311L5.67265 16.0636C5.62655 16.1097 5.56924 16.1429 5.50638 16.1601C5.44351 16.1772 5.37726 16.1777 5.31415 16.1615C4.71912 16.0101 4.09556 16.0108 3.5009 16.1637C2.90624 16.3165 2.35961 16.6166 1.91136 17.0362C1.46312 17.4558 1.12767 17.9814 0.935927 18.5647C0.744181 19.148 0.702303 19.7701 0.814149 20.3739L0.822024 20.4114L0.852024 20.3829L2.68577 18.5491C2.90646 18.3328 3.20276 18.2109 3.5118 18.2094C3.82084 18.208 4.11829 18.327 4.34102 18.5412L5.45852 19.6591C5.67581 19.8792 5.79702 20.1764 5.79562 20.4857C5.79421 20.7949 5.6703 21.091 5.45102 21.3091L3.61352 23.15C4.19572 23.2755 4.80021 23.252 5.37088 23.0816C5.94156 22.9111 6.45993 22.5993 6.8779 22.175C7.32717 21.7273 7.65176 21.17 7.81954 20.5583C7.98732 19.9466 7.99249 19.3018 7.83452 18.6875C7.81777 18.6241 7.81792 18.5574 7.83496 18.4942C7.85201 18.4309 7.88534 18.3731 7.93165 18.3267L18.3274 7.93211ZM7.6099 16.3899C7.5396 16.3195 7.5001 16.2242 7.5001 16.1247C7.5001 16.0253 7.5396 15.9299 7.6099 15.8596L15.8599 7.6096C15.9306 7.5413 16.0254 7.5035 16.1237 7.50435C16.222 7.50521 16.3161 7.54464 16.3856 7.61417C16.4551 7.6837 16.4945 7.77776 16.4954 7.87608C16.4963 7.9744 16.4585 8.06913 16.3902 8.13986L8.14015 16.3899C8.06983 16.4602 7.97446 16.4997 7.87502 16.4997C7.77559 16.4997 7.68022 16.4602 7.6099 16.3899Z" fill="white"/>
<path d="M18.6313 16.0544C18.5677 16.0714 18.5008 16.0713 18.4373 16.0543C18.3738 16.0372 18.3159 16.0038 18.2694 15.9573L14.816 12.5039L13.9254 13.3945L16.466 15.9367C16.5363 16.007 16.5758 16.1023 16.5758 16.2018C16.5758 16.3012 16.5363 16.3966 16.466 16.4669C16.3944 16.5348 16.2995 16.5727 16.2009 16.5727C16.1022 16.5727 16.0073 16.5348 15.9358 16.4669L13.3951 13.9248L12.5049 14.815L15.9504 18.265C15.9966 18.3112 16.03 18.3687 16.0472 18.4318C16.0643 18.4949 16.0647 18.5614 16.0483 18.6247C15.8875 19.2479 15.8914 19.9022 16.0598 20.5234C16.2282 21.1446 16.5551 21.7113 17.0086 22.168C17.4629 22.6191 18.0277 22.9427 18.6466 23.1063C19.2654 23.27 19.9164 23.268 20.5342 23.1005C21.1521 22.9331 21.7149 22.606 22.1664 22.1522C22.6178 21.6984 22.9419 21.1338 23.1062 20.5151C23.2704 19.8964 23.269 19.2454 23.1021 18.6274C22.9352 18.0094 22.6086 17.4462 22.1552 16.9944C21.7018 16.5425 21.1375 16.2179 20.5189 16.0531C19.9004 15.8883 19.2494 15.8892 18.6313 16.0555V16.0544ZM21.8165 20.395L20.396 21.8155C20.3491 21.8614 20.2911 21.8944 20.2278 21.9114C20.1644 21.9284 20.0977 21.9288 20.0341 21.9127L18.0901 21.3933C18.0264 21.3763 17.9684 21.3428 17.9218 21.2962C17.8751 21.2495 17.8416 21.1915 17.8246 21.1278L17.3053 19.1842C17.2882 19.1206 17.2882 19.0536 17.3053 18.99C17.3223 18.9264 17.3558 18.8684 17.4024 18.8219L18.8229 17.4014C18.8693 17.3548 18.9272 17.3213 18.9908 17.3042C19.0543 17.2871 19.1212 17.287 19.1848 17.3039L21.1288 17.8237C21.1924 17.8407 21.2505 17.8742 21.2971 17.9208C21.3437 17.9674 21.3772 18.0255 21.3943 18.0892L21.9136 20.0328C21.9307 20.0964 21.9307 20.1633 21.9136 20.2269C21.8966 20.2905 21.8631 20.3485 21.8165 20.395Z" fill="white"/>
</g>
<defs>
<clipPath id="clip0_2107_10503">
<rect width="24" height="24" fill="white"/>
</clipPath>
</defs>
</svg>
