<svg width="24" height="24" viewBox="0 0 24 24" fill="none" xmlns="http://www.w3.org/2000/svg">
<rect width="24" height="24" fill="#B8B8B8"/>
<g id="Order">
<path d="M-141 -1156C-141 -1157.1 -140.105 -1158 -139 -1158H10480C10481.1 -1158 10482 -1157.1 10482 -1156V624C10482 625.104 10481.1 626 10480 626H-139C-140.104 626 -141 625.105 -141 624V-1156Z" fill="#898989"/>
<path d="M-139 -1157H10480V-1159H-139V-1157ZM10481 -1156V624H10483V-1156H10481ZM10480 625H-139V627H10480V625ZM-140 624V-1156H-142V624H-140ZM-139 625C-139.552 625 -140 624.552 -140 624H-142C-142 625.657 -140.656 627 -139 627V625ZM10481 624C10481 624.552 10480.6 625 10480 625V627C10481.7 627 10483 625.657 10483 624H10481ZM10480 -1157C10480.6 -1157 10481 -1156.55 10481 -1156H10483C10483 -1157.66 10481.7 -1159 10480 -1159V-1157ZM-139 -1159C-140.657 -1159 -142 -1157.66 -142 -1156H-140C-140 -1156.55 -139.552 -1157 -139 -1157V-1159Z" fill="black" fill-opacity="0.1"/>
<g id="Order_2" clip-path="url(#clip0_136_11758)">
<rect width="1920" height="1080" transform="translate(-32 -806)" fill="#F7F7F7"/>
<g id="Navigation" filter="url(#filter0_d_136_11758)">
<rect width="298" height="1080" transform="translate(-32 -806)" fill="white"/>
<g id="Frame 42">
<g id="Navigation tabs">
<g id="wrench_3503287" clip-path="url(#clip1_136_11758)">
<g id="Group">
<path id="Vector" d="M16.39 7.61175C16.2436 7.46536 16.0062 7.46536 15.8598 7.61175L7.60979 15.8617C7.4634 16.0082 7.4634 16.2456 7.60979 16.392C7.75825 16.5334 7.99159 16.5334 8.14004 16.392L16.39 8.142C16.5364 7.99556 16.5364 7.75818 16.39 7.61175Z" fill="black" fill-opacity="0.8"/>
<path id="Vector_2" d="M8.06544 7.5331C7.9184 7.38605 7.67999 7.38605 7.53294 7.5331C7.3859 7.68014 7.3859 7.91855 7.53294 8.0656L9.27669 9.80935C9.42252 9.95639 9.65999 9.95738 9.80704 9.8115C9.80779 9.8108 9.80849 9.81005 9.80919 9.80935C9.95624 9.66352 9.95722 9.42605 9.81135 9.279C9.81065 9.27825 9.8099 9.27755 9.80919 9.27685L8.06544 7.5331ZM1.78044 7.93435C2.80133 8.69907 4.10202 8.98735 5.35044 8.7256L7.85732 11.2325C8.00357 11.3779 8.23982 11.3779 8.38607 11.2325C8.53148 11.0862 8.53148 10.85 8.38607 10.7037L5.73744 8.0506C5.64022 7.95558 5.49988 7.91935 5.36882 7.95535C3.39416 8.46581 1.37952 7.2788 0.869099 5.30414C0.732646 4.77633 0.714786 4.22489 0.816693 3.68935L0.827943 3.6331L2.72169 5.52685C3.18172 5.98767 3.92826 5.98828 4.38904 5.52825C4.38951 5.52778 4.38997 5.52732 4.39044 5.52685C4.39044 5.52685 5.52669 4.39435 5.52669 4.3906C5.97951 3.92855 5.98119 3.18966 5.53044 2.7256L3.67494 0.865597L3.63744 0.828097L3.68619 0.816847C5.68269 0.430362 7.61451 1.7355 8.00104 3.732C8.10533 4.27083 8.0879 4.82611 7.94994 5.35735C7.91277 5.48935 7.94877 5.6311 8.04444 5.72935L10.6994 8.38772C10.8453 8.53477 11.0827 8.53575 11.2298 8.38988C11.2305 8.38917 11.2312 8.38842 11.2319 8.38772C11.379 8.24189 11.38 8.00442 11.2341 7.85738C11.2334 7.85663 11.2326 7.85592 11.2319 7.85522L8.72357 5.35022C9.23043 2.95528 7.69982 0.602909 5.30483 0.0960496C4.72321 -0.0270441 4.12274 -0.0318723 3.53919 0.0818465C3.11676 0.1673 2.84361 0.57905 2.92907 1.00149C2.95944 1.15172 3.03341 1.28967 3.14169 1.3981L5.00169 3.2581C5.1674 3.42572 5.1658 3.69591 4.99818 3.86161C4.99808 3.86171 4.99799 3.86175 4.99794 3.86185L3.85794 4.9981C3.6958 5.16488 3.42922 5.16863 3.26244 5.00649C3.25836 5.0025 3.25438 4.99847 3.25044 4.99435L1.39794 3.14185C1.09396 2.83749 0.600786 2.83721 0.296427 3.14119C0.185708 3.25177 0.110896 3.39314 0.0816927 3.54685C-0.240901 5.21414 0.419193 6.91899 1.78044 7.93435ZM2.21919 16.7806C3.10297 16.1152 4.24124 15.8875 5.31294 16.1618C5.44176 16.1955 5.57877 16.1585 5.67294 16.0643L13.9192 7.8181C14.0662 7.67105 14.0662 7.43264 13.9192 7.2856C13.7721 7.13855 13.5337 7.13855 13.3867 7.2856L5.29044 15.3856C2.9009 14.9037 0.573177 16.4502 0.0913021 18.8398C-0.0201198 19.3924 -0.0246667 19.9613 0.0779427 20.5156C0.156786 20.9334 0.559396 21.2082 0.97724 21.1294C1.13136 21.1003 1.27288 21.0248 1.38294 20.9131L3.21669 19.0793C3.37846 18.9142 3.6433 18.9109 3.80919 19.0718L4.92669 20.1893C5.08405 20.3567 5.08072 20.6185 4.91919 20.7818L3.08169 22.6193C2.8784 22.8239 2.8048 23.124 2.89044 23.3993C2.9744 23.6692 3.20122 23.87 3.47919 23.9206C3.74858 23.9726 4.02233 23.999 4.29669 23.9993C6.73185 23.9951 8.70252 22.0176 8.6983 19.5825C8.69779 19.2887 8.66793 18.9959 8.60919 18.7081L9.56544 17.7556C9.71249 17.6085 9.71249 17.3701 9.56544 17.2231C9.4184 17.076 9.17999 17.076 9.03294 17.2231L7.93044 18.3256C7.83651 18.4214 7.79952 18.5594 7.83294 18.6893C8.1546 19.938 7.79071 21.2636 6.87669 22.1731C6.02844 23.0363 4.79755 23.4056 3.61419 23.1518L5.45169 21.3106C5.90005 20.8517 5.90338 20.1198 5.45919 19.6568L4.34169 18.5393C3.88101 18.0859 3.14076 18.0893 2.68419 18.5468L0.824943 20.4106L0.813693 20.3731C0.557521 19.0054 1.10296 17.6113 2.21919 16.7806Z" fill="black" fill-opacity="0.8"/>
<path id="Vector_3" d="M16.4653 15.9372L14.7204 14.1893C14.5741 14.0428 14.3366 14.0426 14.1901 14.189C14.19 14.1891 14.1899 14.1892 14.1898 14.1893C14.0439 14.3356 14.0439 14.5724 14.1898 14.7188C14.9338 15.4624 15.9358 16.4614 15.9392 16.4648C16.0874 16.6055 16.3198 16.6055 16.4679 16.4648C16.6118 16.3179 16.6107 16.0826 16.4653 15.9372ZM22.6978 16.4772C21.6371 15.4215 20.1157 14.9717 18.6516 15.2809L16.1409 12.7703C15.9945 12.6241 15.7575 12.6241 15.6111 12.7703C15.4642 12.9163 15.4636 13.1538 15.6097 13.3006L15.6111 13.302L18.2698 15.9608C18.3653 16.0552 18.5036 16.0923 18.6336 16.0583C20.577 15.5455 22.5682 16.7053 23.081 18.6488C23.5937 20.5923 22.434 22.5834 20.4905 23.0962C18.547 23.609 16.5558 22.4492 16.0431 20.5057C15.8815 19.8933 15.8825 19.2494 16.0461 18.6375C16.0827 18.506 16.0467 18.365 15.9516 18.267L13.2992 15.6113C13.1528 15.4648 12.9154 15.4646 12.7688 15.611C12.7688 15.6111 12.7687 15.6112 12.7686 15.6113C12.622 15.7576 12.6219 15.9951 12.7683 16.1416L12.7686 16.1419L15.2747 18.648C14.9727 20.1151 15.4261 21.6358 16.4822 22.698C17.313 23.5303 18.4412 23.9972 19.6172 23.9955C20.7802 24.0001 21.8967 23.5397 22.7184 22.7168C24.4336 20.9872 24.4244 18.1954 22.6978 16.4772ZM18.7086 8.60966C21.0941 9.09688 23.4229 7.55807 23.9101 5.17255C24.0238 4.61572 24.0288 4.04211 23.9248 3.48341C23.8727 3.20408 23.6708 2.97627 23.3998 2.89091C23.1256 2.80672 22.8273 2.88022 22.6236 3.08216L20.7786 4.91966C20.6187 5.08429 20.3557 5.08818 20.191 4.92833C20.1906 4.92796 20.1902 4.92754 20.1898 4.92716C20.1898 4.92716 19.0723 3.81341 19.0723 3.80966C18.9132 3.64302 18.9165 3.37972 19.0798 3.21716L20.9136 1.38341C21.1157 1.17983 21.1905 0.882082 21.1086 0.60716C21.0255 0.333691 20.7965 0.129598 20.5153 0.0784101C18.1184 -0.365262 15.8156 1.21818 15.372 3.61508C15.2693 4.16943 15.2739 4.73825 15.3853 5.29091L14.4478 6.22466C14.3008 6.37171 14.3008 6.61011 14.4478 6.75716C14.5949 6.90421 14.8333 6.90421 14.9803 6.75716L16.0641 5.67341C16.1582 5.57924 16.1953 5.44222 16.1616 5.31341C15.6652 3.3531 16.8519 1.36152 18.8123 0.86516C19.3227 0.735926 19.855 0.718254 20.3728 0.81341L20.4141 0.82466L18.5466 2.68466C18.089 3.14122 18.0856 3.88147 18.5391 4.34216L19.6566 5.45966C20.1157 5.91332 20.8553 5.90994 21.3103 5.45216L23.1853 3.62216C23.5533 5.60825 22.2416 7.51668 20.2555 7.88469C19.7358 7.98097 19.2014 7.96349 18.6891 7.83341C18.5591 7.79943 18.4208 7.8365 18.3253 7.93091L10.0941 16.1622C9.94781 16.3095 9.94781 16.5473 10.0941 16.6947C10.243 16.8372 10.4776 16.8372 10.6266 16.6947L18.7086 8.60966Z" fill="black" fill-opacity="0.8"/>
<path id="Vector_4" d="M21.9139 20.0352L21.3927 18.0889C21.3574 17.9606 21.258 17.8598 21.1302 17.8227L19.1839 17.3052C19.0551 17.2715 18.9181 17.3086 18.8239 17.4027L17.4027 18.8239C17.3086 18.9181 17.2715 19.0551 17.3052 19.1839L17.8227 21.1302C17.8598 21.258 17.9606 21.3574 18.0889 21.3927C18.0889 21.3927 20.0314 21.9139 20.0352 21.9139C20.164 21.9469 20.3006 21.9099 20.3952 21.8164L21.8164 20.3952C21.9106 20.301 21.9477 20.164 21.9139 20.0352ZM20.0202 21.1339L18.4939 20.7252L18.0852 19.1989L19.1989 18.0852L20.7252 18.4939L21.1339 20.0164L20.0202 21.1339Z" fill="black" fill-opacity="0.8"/>
</g>
</g>
</g>
</g>
</g>
</g>
</g>
<defs>
<filter id="filter0_d_136_11758" x="-47" y="-820" width="328" height="1110" filterUnits="userSpaceOnUse" color-interpolation-filters="sRGB">
<feFlood flood-opacity="0" result="BackgroundImageFix"/>
<feColorMatrix in="SourceAlpha" type="matrix" values="0 0 0 0 0 0 0 0 0 0 0 0 0 0 0 0 0 0 127 0" result="hardAlpha"/>
<feOffset dy="1"/>
<feGaussianBlur stdDeviation="7.5"/>
<feComposite in2="hardAlpha" operator="out"/>
<feColorMatrix type="matrix" values="0 0 0 0 0 0 0 0 0 0 0 0 0 0 0 0 0 0 0.08 0"/>
<feBlend mode="normal" in2="BackgroundImageFix" result="effect1_dropShadow_136_11758"/>
<feBlend mode="normal" in="SourceGraphic" in2="effect1_dropShadow_136_11758" result="shape"/>
</filter>
<clipPath id="clip0_136_11758">
<rect width="1920" height="1080" fill="white" transform="translate(-32 -806)"/>
</clipPath>
<clipPath id="clip1_136_11758">
<rect width="24" height="24" fill="white"/>
</clipPath>
</defs>
</svg>
