<svg width="24" height="24" viewBox="0 0 24 24" fill="none" xmlns="http://www.w3.org/2000/svg">
<g clip-path="url(#clip0_230_843)">
<path d="M8.05664 3.40847C8.12348 3.48211 8.15832 3.57929 8.15352 3.67862C8.14871 3.77796 8.10464 3.87131 8.031 3.93816L7.40494 4.50628V6.70125C7.40494 6.80071 7.36543 6.89609 7.2951 6.96641C7.22478 7.03674 7.12939 7.07625 7.02994 7.07625H2.67525C2.57579 7.07625 2.48041 7.03674 2.41008 6.96641C2.33976 6.89609 2.30025 6.80071 2.30025 6.70125V2.67511C2.30025 2.57565 2.33976 2.48027 2.41008 2.40994C2.48041 2.33962 2.57579 2.30011 2.67525 2.30011H7.02994C7.12939 2.30011 7.22478 2.33962 7.2951 2.40994C7.36543 2.48027 7.40494 2.57565 7.40494 2.67511C7.40494 2.77457 7.36543 2.86995 7.2951 2.94027C7.22478 3.0106 7.12939 3.05011 7.02994 3.05011H3.05025V6.3263H6.65494V5.187L5.95805 5.81944C5.88672 5.88416 5.79323 5.91895 5.69695 5.91661C5.60067 5.91427 5.50897 5.87498 5.44088 5.80687L4.58737 4.95342C4.5522 4.91868 4.52425 4.87732 4.50512 4.83174C4.48599 4.78615 4.47607 4.73723 4.47591 4.6878C4.47576 4.63836 4.48539 4.58938 4.50424 4.54368C4.52308 4.49797 4.55078 4.45645 4.58574 4.42149C4.62069 4.38653 4.66222 4.35883 4.70792 4.33997C4.75362 4.32112 4.8026 4.31149 4.85204 4.31164C4.90147 4.31179 4.95039 4.32171 4.99598 4.34084C5.04157 4.35996 5.08293 4.38791 5.11767 4.42308L5.71875 5.02397L7.52714 3.38283C7.60077 3.31605 7.69791 3.28124 7.7972 3.28605C7.89649 3.29085 7.9898 3.33489 8.05664 3.40847ZM7.52695 10.6946L5.71875 12.3358L5.11786 11.7349C5.08311 11.6997 5.04176 11.6718 4.99617 11.6526C4.95058 11.6335 4.90166 11.6236 4.85222 11.6234C4.80279 11.6233 4.75381 11.6329 4.70811 11.6518C4.6624 11.6706 4.62088 11.6983 4.58592 11.7333C4.55097 11.7682 4.52327 11.8098 4.50442 11.8555C4.48558 11.9012 4.47595 11.9502 4.4761 11.9996C4.47626 12.049 4.48618 12.0979 4.50531 12.1435C4.52444 12.1891 4.55239 12.2305 4.58756 12.2652L5.44106 13.1187C5.50917 13.1868 5.60086 13.2261 5.69714 13.2284C5.79343 13.2308 5.88692 13.196 5.95823 13.1312L6.65512 12.4988V13.6379H3.05044V10.3619H7.03012C7.12958 10.3619 7.22496 10.3224 7.29529 10.2521C7.36562 10.1817 7.40512 10.0864 7.40512 9.98691C7.40512 9.88745 7.36562 9.79207 7.29529 9.72174C7.22496 9.65141 7.12958 9.61191 7.03012 9.61191H2.67544C2.57598 9.61191 2.4806 9.65141 2.41027 9.72174C2.33995 9.79207 2.30044 9.88745 2.30044 9.98691V14.013C2.30044 14.1125 2.33995 14.2079 2.41027 14.2782C2.4806 14.3485 2.57598 14.388 2.67544 14.388H7.03012C7.12958 14.388 7.22496 14.3485 7.29529 14.2782C7.36562 14.2079 7.40512 14.1125 7.40512 14.013V11.8182L8.031 11.25C8.10465 11.1832 8.14873 11.0898 8.15354 10.9905C8.15835 10.8911 8.1235 10.7939 8.05666 10.7203C7.98982 10.6466 7.89646 10.6026 7.79712 10.5978C7.69778 10.5929 7.6006 10.6278 7.52695 10.6946ZM7.52695 18.0065L5.71875 19.6476L5.11786 19.0467C5.04753 18.9764 4.95214 18.9368 4.85268 18.9369C4.75322 18.9369 4.65784 18.9764 4.58752 19.0467C4.51719 19.1171 4.47769 19.2124 4.4777 19.3119C4.47771 19.4114 4.51723 19.5067 4.58756 19.5771L5.44106 20.4306C5.50917 20.4987 5.60087 20.5379 5.69715 20.5403C5.79344 20.5426 5.88692 20.5078 5.95823 20.443L6.65512 19.8106V20.9499H3.05044V17.6737H7.03012C7.12958 17.6737 7.22496 17.6342 7.29529 17.5639C7.36562 17.4935 7.40512 17.3982 7.40512 17.2987C7.40512 17.1992 7.36562 17.1039 7.29529 17.0335C7.22496 16.9632 7.12958 16.9237 7.03012 16.9237H2.67544C2.57598 16.9237 2.4806 16.9632 2.41027 17.0335C2.33995 17.1039 2.30044 17.1992 2.30044 17.2987V21.3249C2.30044 21.4243 2.33995 21.5197 2.41027 21.5901C2.4806 21.6604 2.57598 21.6999 2.67544 21.6999H7.03012C7.12958 21.6999 7.22496 21.6604 7.29529 21.5901C7.36562 21.5197 7.40512 21.4243 7.40512 21.3249V19.13L8.03119 18.5618C8.10378 18.4947 8.14693 18.4016 8.15126 18.3029C8.15558 18.2041 8.12073 18.1076 8.05429 18.0344C7.98785 17.9612 7.89519 17.9172 7.79647 17.912C7.69774 17.9067 7.60095 17.9407 7.52714 18.0065H7.52695ZM9.46781 3.05011H14.3395C14.4389 3.05011 14.5343 3.0106 14.6046 2.94027C14.675 2.86995 14.7145 2.77457 14.7145 2.67511C14.7145 2.57565 14.675 2.48027 14.6046 2.40994C14.5343 2.33962 14.4389 2.30011 14.3395 2.30011H9.46781C9.36836 2.30011 9.27297 2.33962 9.20265 2.40994C9.13232 2.48027 9.09281 2.57565 9.09281 2.67511C9.09281 2.77457 9.13232 2.86995 9.20265 2.94027C9.27297 3.0106 9.36836 3.05011 9.46781 3.05011ZM9.46781 5.0632H14.3395C14.4389 5.0632 14.5343 5.02369 14.6046 4.95337C14.675 4.88304 14.7145 4.78766 14.7145 4.6882C14.7145 4.58875 14.675 4.49336 14.6046 4.42304C14.5343 4.35271 14.4389 4.3132 14.3395 4.3132H9.46781C9.36836 4.3132 9.27297 4.35271 9.20265 4.42304C9.13232 4.49336 9.09281 4.58875 9.09281 4.6882C9.09281 4.78766 9.13232 4.88304 9.20265 4.95337C9.27297 5.02369 9.36836 5.0632 9.46781 5.0632ZM9.46781 10.362H14.3395C14.4389 10.362 14.5343 10.3224 14.6046 10.2521C14.675 10.1818 14.7145 10.0864 14.7145 9.98695C14.7145 9.8875 14.675 9.79211 14.6046 9.72179C14.5343 9.65146 14.4389 9.61195 14.3395 9.61195H9.46781C9.36836 9.61195 9.27297 9.65146 9.20265 9.72179C9.13232 9.79211 9.09281 9.8875 9.09281 9.98695C9.09281 10.0864 9.13232 10.1818 9.20265 10.2521C9.27297 10.3224 9.36836 10.362 9.46781 10.362ZM9.46781 12.375H14.3395C14.4389 12.375 14.5343 12.3355 14.6046 12.2652C14.675 12.1948 14.7145 12.0995 14.7145 12C14.7145 11.9005 14.675 11.8052 14.6046 11.7348C14.5343 11.6645 14.4389 11.625 14.3395 11.625H9.46781C9.36836 11.625 9.27297 11.6645 9.20265 11.7348C9.13232 11.8052 9.09281 11.9005 9.09281 12C9.09281 12.0995 9.13232 12.1948 9.20265 12.2652C9.27297 12.3355 9.36836 12.375 9.46781 12.375ZM11.6677 16.9237H9.46781C9.36836 16.9237 9.27297 16.9632 9.20265 17.0335C9.13232 17.1039 9.09281 17.1992 9.09281 17.2987C9.09281 17.3982 9.13232 17.4935 9.20265 17.5639C9.27297 17.6342 9.36836 17.6737 9.46781 17.6737H11.6677C11.7671 17.6737 11.8625 17.6342 11.9328 17.5639C12.0031 17.4935 12.0427 17.3982 12.0427 17.2987C12.0427 17.1992 12.0031 17.1039 11.9328 17.0335C11.8625 16.9632 11.7671 16.9237 11.6677 16.9237ZM11.6677 18.9368H9.46781C9.36836 18.9368 9.27297 18.9763 9.20265 19.0466C9.13232 19.1169 9.09281 19.2123 9.09281 19.3118C9.09281 19.4112 9.13232 19.5066 9.20265 19.5769C9.27297 19.6472 9.36836 19.6868 9.46781 19.6868H11.6677C11.7671 19.6868 11.8625 19.6472 11.9328 19.5769C12.0031 19.5066 12.0427 19.4112 12.0427 19.3118C12.0427 19.2123 12.0031 19.1169 11.9328 19.0466C11.8625 18.9763 11.7671 18.9368 11.6677 18.9368ZM24 15.5578V20.9359C24 21.0017 23.9827 21.0664 23.9498 21.1234C23.9168 21.1804 23.8695 21.2278 23.8125 21.2607L19.1549 23.9498C19.0979 23.9827 19.0332 24 18.9674 24C18.9015 24 18.8369 23.9827 18.7799 23.9498L17.0146 22.9305V23.625C17.0146 23.7245 16.9751 23.8198 16.9048 23.8902C16.8345 23.9605 16.7391 24 16.6396 24H0.375C0.275544 24 0.180161 23.9605 0.109835 23.8902C0.0395088 23.8198 0 23.7245 0 23.625V0.375C0 0.275544 0.0395088 0.180161 0.109835 0.109835C0.180161 0.0395088 0.275544 0 0.375 0L16.6396 0C16.7391 0 16.8345 0.0395088 16.9048 0.109835C16.9751 0.180161 17.0146 0.275544 17.0146 0.375V13.5631L18.7799 12.5438C18.8369 12.5108 18.9015 12.4935 18.9674 12.4935C19.0332 12.4935 19.0979 12.5108 19.1549 12.5438L23.8125 15.2331C23.8695 15.266 23.9168 15.3133 23.9498 15.3703C23.9827 15.4273 24 15.492 24 15.5578ZM15.0598 15.5578L18.9674 17.8138L22.875 15.5578L18.9674 13.3017L15.0598 15.5578ZM14.6848 20.7194L18.5924 22.9755V18.4633L14.6848 16.2073V20.7194ZM16.2645 22.4976L14.1223 21.2607C14.0653 21.2278 14.0179 21.1804 13.985 21.1234C13.9521 21.0664 13.9348 21.0017 13.9348 20.9359V15.5578C13.9348 15.492 13.9521 15.4273 13.985 15.3703C14.0179 15.3133 14.0653 15.266 14.1223 15.2331L16.2645 13.9962V0.75H0.75V23.25H16.2646L16.2645 22.4976ZM23.25 20.7194V16.2073L19.3424 18.4633V22.9755L23.25 20.7194Z" fill="black" fill-opacity="0.8"/>
</g>
<defs>
<clipPath id="clip0_230_843">
<rect width="24" height="24" fill="white"/>
</clipPath>
</defs>
</svg>
