<svg width="24" height="24" viewBox="0 0 24 24" fill="none" xmlns="http://www.w3.org/2000/svg">
<g clip-path="url(#clip0_230_836)">
<path d="M12 5.90625C12.2531 5.90625 12.4598 5.7052 12.4682 5.45398C12.4687 5.44885 12.4687 5.44318 12.4687 5.4375C12.4687 5.17877 12.2587 4.96875 12 4.96875C11.7413 4.96875 11.5312 5.17877 11.5312 5.4375C11.5312 5.44318 11.5312 5.44885 11.5318 5.45398C11.5402 5.7052 11.7469 5.90625 12 5.90625Z" fill="black" fill-opacity="0.8"/>
<path d="M14.8125 10.5937C14.8125 9.04303 13.5509 7.78125 12 7.78125C10.4491 7.78125 9.1875 9.04303 9.1875 10.5937C9.1875 12.1446 10.4491 13.4062 12 13.4062C13.5509 13.4062 14.8125 12.1446 14.8125 10.5937ZM12 12.4687C10.9662 12.4687 10.125 11.6276 10.125 10.5937C10.125 9.55993 10.9662 8.71875 12 8.71875C13.0338 8.71875 13.875 9.55993 13.875 10.5937C13.875 11.6276 13.0338 12.4687 12 12.4687Z" fill="black" fill-opacity="0.8"/>
<path d="M23.6231 10.1341L21.5778 9.72526C21.3374 8.71361 20.9362 7.74553 20.3816 6.83953L21.6181 5.02202C21.7446 4.83581 21.7212 4.58605 21.5621 4.42693L19.5732 2.43804C19.4139 2.27874 19.1641 2.25531 18.9779 2.38183C18.5539 2.6704 17.6096 3.31274 17.156 3.6209C16.257 3.06555 15.2902 2.66326 14.2747 2.42211L13.8658 0.37683C13.8221 0.157837 13.6298 0 13.4062 0H10.5937C10.3703 0 10.1779 0.157837 10.1341 0.37683L9.72526 2.42211C8.70939 2.66345 7.74278 3.06573 6.8441 3.62127C6.41509 3.32958 5.54296 2.73632 5.02202 2.38183C4.83581 2.25531 4.58605 2.27893 4.42675 2.43804L2.43786 4.42693C2.27874 4.58605 2.25512 4.83599 2.38183 5.02202L3.61834 6.83953C3.06371 7.74553 2.66235 8.71361 2.42211 9.72526L0.37683 10.1341C0.157653 10.1779 0 10.3703 0 10.5937V13.4062C0 13.6296 0.157653 13.8221 0.37683 13.8658L2.42211 14.2747C2.66345 15.2907 3.06573 16.2574 3.62127 17.156C3.32958 17.5849 2.73614 18.457 2.38183 18.9781C2.25512 19.1641 2.27874 19.4139 2.43786 19.5732L4.42675 21.5621C4.58605 21.7212 4.83581 21.7448 5.02202 21.6181L6.83934 20.3816C7.74553 20.9364 8.71379 21.3376 9.72526 21.5778L10.1341 23.6231C10.1779 23.8423 10.3703 24 10.5937 24H13.4062C13.6298 24 13.8221 23.8423 13.8658 23.6231L14.2747 21.5778C15.2904 21.3367 16.2572 20.9344 17.156 20.3787C17.5849 20.6704 18.4572 21.2636 18.9781 21.6181C19.1641 21.7446 19.4139 21.7212 19.5732 21.5621L21.5621 19.573C21.7212 19.4139 21.7448 19.1641 21.6181 18.9779C21.2638 18.457 20.6704 17.5849 20.3787 17.1558C20.9344 16.2572 21.3369 15.2904 21.5778 14.2747L23.6231 13.8658C23.8423 13.8221 24 13.6296 24 13.4062V10.5937C24 10.3703 23.8423 10.1779 23.6231 10.1341ZM23.0625 13.0219L21.0943 13.4154C20.9091 13.4524 20.7643 13.5967 20.7268 13.7814C20.5003 14.893 20.0628 15.9441 19.4265 16.905C19.3256 17.0572 19.3223 17.2544 19.4183 17.4098C19.4254 17.4215 19.4273 17.4245 20.6248 19.1847L19.1845 20.6248C17.4243 19.4275 17.4215 19.4256 17.4096 19.4183C17.2544 19.3225 17.0573 19.3256 16.9048 19.4265C15.9439 20.0628 14.893 20.5004 13.7814 20.7268C13.5965 20.7645 13.4522 20.9093 13.4152 21.0943L13.0219 23.0625H10.9781L10.5846 21.0943C10.5476 20.9093 10.4033 20.7643 10.2185 20.7268C9.11223 20.5014 8.05864 20.0647 7.08672 19.4289C6.92833 19.3253 6.72307 19.3269 6.56652 19.4335L4.8153 20.6248L3.37518 19.1847C4.57268 17.4243 4.57433 17.4215 4.58166 17.4098C4.67742 17.2542 4.67431 17.0572 4.57342 16.9048C3.93713 15.9442 3.49969 14.8934 3.27319 13.7814C3.23547 13.5965 3.09063 13.4524 2.90569 13.4154L0.937498 13.0219V10.9781L2.90569 10.5846C3.09081 10.5476 3.23547 10.4035 3.27319 10.2185C3.49877 9.11204 3.93529 8.05827 4.57122 7.08672C4.67486 6.92833 4.67303 6.72307 4.56646 6.56633L3.37518 4.8153L4.81548 3.37518C6.57567 4.5725 6.57842 4.57433 6.59032 4.58166C6.74578 4.67742 6.9428 4.67431 7.09496 4.57342C8.05589 3.93731 9.10673 3.49969 10.2185 3.27319C10.4035 3.23547 10.5478 3.09063 10.5848 2.90569L10.9781 0.937498H13.0219L13.4154 2.90588C13.4524 3.09081 13.5967 3.23565 13.7814 3.27319C14.8929 3.49969 15.9437 3.93694 16.9052 4.57305C17.0495 4.66863 17.2348 4.67687 17.3869 4.59447C17.4124 4.58074 17.414 4.57982 19.1847 3.37518L20.6248 4.81548L19.4337 6.56652C19.3271 6.72307 19.3251 6.92833 19.4289 7.0869C20.0647 8.05846 20.5014 9.11223 20.7268 10.2187C20.7645 10.4035 20.9093 10.5478 21.0943 10.5848L23.0625 10.9782V13.0219Z" fill="black" fill-opacity="0.8"/>
<path d="M13.9796 5.2525C13.7298 5.18438 13.4722 5.3316 13.4041 5.58135C13.336 5.83111 13.4832 6.08874 13.733 6.15685C15.8469 6.73345 18.0938 8.97722 18.0938 11.9999C18.0938 13.7953 17.3132 15.4115 16.0738 16.5277C15.5882 14.7234 13.936 13.4062 12 13.4062C10.0643 13.4062 8.41228 14.7232 7.9265 16.5272C6.57702 15.3165 5.82794 13.5823 5.91271 11.7165C6.0418 9.1043 7.79412 6.8695 10.2735 6.15502C10.5224 6.08343 10.6659 5.8236 10.5942 5.57495C10.5224 5.32611 10.2627 5.18255 10.0141 5.25433C7.28051 6.04186 5.13031 8.55498 4.97631 11.6722C4.789 15.7915 8.10686 19.0312 12 19.0312C15.8723 19.0312 19.0313 15.9094 19.0313 11.9999C19.0313 8.74285 16.7368 6.00433 13.9796 5.2525ZM8.75377 17.1509C8.98449 15.5567 10.3614 14.3437 12 14.3437C13.6399 14.3437 15.0176 15.5586 15.2469 17.1543C14.3063 17.7491 13.1928 18.0937 12 18.0937C10.8489 18.0937 9.72057 17.7593 8.75377 17.1509Z" fill="black" fill-opacity="0.8"/>
</g>
<defs>
<clipPath id="clip0_230_836">
<rect width="24" height="24" fill="white"/>
</clipPath>
</defs>
</svg>
