<svg width="22" height="24" viewBox="0 0 22 24" fill="none" xmlns="http://www.w3.org/2000/svg">
<path d="M0.471791 20.092C0.660643 20.5259 1.09066 20.8047 1.56379 20.8H6.22339C6.43248 22.617 7.97079 23.9885 9.79979 23.9885C11.6288 23.9885 13.1671 22.617 13.3762 20.8H18.0358C18.5089 20.8047 18.9389 20.5259 19.1278 20.092C19.3257 19.6502 19.2404 19.1328 18.911 18.778C17.7943 17.5787 17.1201 16.0343 16.9998 14.4V12.3016C17.023 12.2464 17.0399 12.1887 17.0502 12.1296L17.3482 10.3392C17.5187 10.2565 17.6837 10.163 17.8422 10.0592L19.5382 10.696C19.9039 10.8332 20.3151 10.6854 20.5098 10.3468L21.377 8.85322C21.5671 8.5132 21.4881 8.08598 21.189 7.83642L19.7854 6.68762C19.7914 6.59282 19.7998 6.49842 19.7998 6.40202C19.7998 6.30562 19.7914 6.21123 19.7854 6.11643L21.1926 4.96482C21.4906 4.7129 21.5667 4.28439 21.3738 3.94522L20.513 2.46082C20.3194 2.11981 19.9071 1.9694 19.5394 2.10562L17.8422 2.74282C17.6837 2.63907 17.5187 2.54555 17.3482 2.46282L17.0506 0.673624C16.9884 0.28521 16.6531 -0.000392838 16.2598 2.44337e-05H14.5398C14.1472 -0.00162423 13.8118 0.282816 13.7494 0.670424L13.4514 2.46082C13.2809 2.54419 13.1159 2.63839 12.9574 2.74282L11.2614 2.10602C10.8957 1.96866 10.4844 2.1165 10.2898 2.45522L10.0834 2.81082C9.98859 2.80682 9.89499 2.80002 9.79979 2.80002C8.98168 2.80159 8.1699 2.94351 7.39979 3.21962C7.39979 3.21322 7.39979 3.20682 7.39979 3.20002C7.40111 1.87509 8.47486 0.801347 9.79979 0.800025C10.5327 0.796975 11.2258 1.13325 11.677 1.71082C11.8133 1.88468 12.0647 1.91513 12.2386 1.77882C12.4125 1.64252 12.4429 1.39108 12.3066 1.21722C11.7042 0.445596 10.7787 -0.00381747 9.79979 2.44337e-05C8.0333 0.00200839 6.60178 1.43354 6.59979 3.20002C6.59983 3.3171 6.60637 3.43408 6.61939 3.55042C4.16164 4.76052 2.60356 7.26053 2.59979 10V14.4C2.48378 16.0359 1.8087 17.5821 0.687791 18.7792C0.358893 19.1338 0.273848 19.6507 0.471791 20.092ZM9.79979 23.2C8.4085 23.1983 7.22882 22.1768 7.02819 20.8H12.5714C12.3708 22.1768 11.1911 23.1983 9.79979 23.2ZM16.2598 12H14.5398L14.317 10.6608C15.0276 10.8486 15.7748 10.8486 16.4854 10.6608L16.2598 12ZM12.2514 9.46723L10.9818 9.94322L10.117 8.45363L11.1686 7.59323C11.3677 8.29839 11.7399 8.94259 12.2514 9.46723ZM11.7998 6.40002C11.7998 4.4118 13.4116 2.80002 15.3998 2.80002C17.388 2.80002 18.9998 4.4118 18.9998 6.40002C18.9998 8.38825 17.388 10 15.3998 10C13.4126 9.9976 11.8022 8.38725 11.7998 6.40002ZM20.6818 8.45522L19.8206 9.94563L18.5478 9.46562C19.0594 8.94101 19.4318 8.29682 19.631 7.59163L20.6818 8.45522ZM19.8178 2.85522L20.6826 4.34482L19.631 5.20522C19.4319 4.50006 19.0597 3.85586 18.5482 3.33122L19.8178 2.85522ZM14.5398 0.800025H16.2598L16.4826 2.13922C15.772 1.95149 15.0248 1.95149 14.3142 2.13922L14.5398 0.800025ZM12.2518 3.33242C11.7402 3.85704 11.3678 4.50123 11.1686 5.20642L10.1198 4.34482L10.6518 3.42482C10.6614 3.41054 10.67 3.39557 10.6774 3.38002L10.981 2.85482L12.2518 3.33242ZM1.27979 19.32C2.54014 17.9785 3.29031 16.2375 3.39979 14.4V10C3.40508 6.53878 6.15996 3.70825 9.61979 3.60922L9.42259 3.94882C9.23246 4.28885 9.31145 4.71607 9.61059 4.96562L11.0142 6.11443C11.0082 6.20923 10.9998 6.30363 10.9998 6.40002C10.9998 6.49643 11.0082 6.59083 11.0142 6.68563L9.60699 7.83723C9.309 8.08914 9.23285 8.51766 9.42579 8.85682L10.2866 10.3392C10.4286 10.5902 10.6947 10.7453 10.983 10.7452C11.0777 10.7453 11.1716 10.7281 11.2602 10.6944L12.9574 10.0572C13.1159 10.161 13.2809 10.2545 13.4514 10.3372L13.749 12.1264C13.8111 12.5148 14.1464 12.8004 14.5398 12.8H16.1998V14.4C16.3098 16.2364 17.06 17.9762 18.3198 19.3168C18.4341 19.4381 18.4642 19.6163 18.3962 19.7684C18.3352 19.9123 18.1924 20.0042 18.0362 20H1.56379C1.40759 20.0042 1.26476 19.9123 1.20379 19.7684C1.13675 19.6173 1.16668 19.4407 1.27979 19.32Z" fill="black" fill-opacity="0.8"/>
<path d="M2.99961 19.1999H4.59961C4.82052 19.1999 4.99961 19.0208 4.99961 18.7999C4.99961 18.579 4.82052 18.3999 4.59961 18.3999H2.99961C2.7787 18.3999 2.59961 18.579 2.59961 18.7999C2.59961 19.0208 2.7787 19.1999 2.99961 19.1999Z" fill="black" fill-opacity="0.8"/>
<path d="M5.7998 18.7999C5.7998 19.0208 5.97889 19.1999 6.1998 19.1999H16.5998C16.8207 19.1999 16.9998 19.0208 16.9998 18.7999C16.9998 18.579 16.8207 18.3999 16.5998 18.3999H6.1998C5.97889 18.3999 5.7998 18.579 5.7998 18.7999Z" fill="black" fill-opacity="0.8"/>
<path d="M4.6002 10.4001C4.82112 10.4001 5.0002 10.221 5.0002 10.0001C4.99834 8.54152 5.66233 7.16184 6.8034 6.25331C6.91795 6.16491 6.97584 6.02155 6.95478 5.8784C6.93372 5.73525 6.83699 5.61464 6.70184 5.56298C6.56668 5.51133 6.41417 5.53669 6.303 5.62931C4.97193 6.68911 4.19757 8.29866 4.2002 10.0001C4.2002 10.1062 4.24234 10.2079 4.31736 10.2829C4.39237 10.358 4.49412 10.4001 4.6002 10.4001Z" fill="black" fill-opacity="0.8"/>
<path d="M17.3994 6.3999C17.3994 5.29533 16.504 4.3999 15.3994 4.3999C14.2948 4.3999 13.3994 5.29533 13.3994 6.3999C13.3994 7.50447 14.2948 8.3999 15.3994 8.3999C16.5034 8.39858 17.3981 7.50392 17.3994 6.3999ZM14.1994 6.3999C14.1994 5.73716 14.7367 5.1999 15.3994 5.1999C16.0622 5.1999 16.5994 5.73716 16.5994 6.3999C16.5994 7.06264 16.0622 7.5999 15.3994 7.5999C14.7367 7.5999 14.1994 7.06264 14.1994 6.3999Z" fill="black" fill-opacity="0.8"/>
</svg>
