<svg width="24" height="24" viewBox="0 0 24 24" fill="none" xmlns="http://www.w3.org/2000/svg">
<path d="M10.5314 8.12587C10.5099 8.08157 10.4798 8.04196 10.443 8.0093C10.4061 7.97663 10.3632 7.95156 10.3166 7.9355C10.27 7.91945 10.2208 7.91273 10.1716 7.91574C10.1224 7.91874 10.0743 7.93141 10.0301 7.95301C9.09163 8.41139 8.34094 9.18072 7.90571 10.1301C7.88499 10.1749 7.87333 10.2234 7.87138 10.2727C7.86944 10.322 7.87726 10.3713 7.89438 10.4176C7.91151 10.4639 7.93761 10.5063 7.97118 10.5425C8.00475 10.5787 8.04515 10.6079 8.09003 10.6284C8.13492 10.649 8.18342 10.6604 8.23275 10.6622C8.28209 10.6639 8.33128 10.6559 8.37751 10.6386C8.42373 10.6213 8.46609 10.595 8.50214 10.5613C8.5382 10.5276 8.56724 10.4871 8.5876 10.4421C8.95042 9.65065 9.57624 9.0093 10.3586 8.6272C10.4029 8.60563 10.4425 8.57556 10.4751 8.53869C10.5077 8.50183 10.5328 8.45889 10.5489 8.41233C10.5649 8.36578 10.5716 8.31652 10.5686 8.26737C10.5656 8.21821 10.553 8.17013 10.5314 8.12587Z" fill="black" fill-opacity="0.8"/>
<path d="M18 12C18 10.8133 17.6481 9.65328 16.9888 8.66658C16.3295 7.67989 15.3925 6.91085 14.2961 6.45673C13.1997 6.0026 11.9933 5.88378 10.8295 6.11529C9.66557 6.3468 8.59648 6.91825 7.75736 7.75736C6.91825 8.59648 6.3468 9.66557 6.11529 10.8295C5.88378 11.9933 6.0026 13.1997 6.45673 14.2961C6.91085 15.3925 7.67989 16.3295 8.66658 16.9888C9.65328 17.6481 10.8133 18 12 18C13.5907 17.9982 15.1158 17.3655 16.2406 16.2406C17.3655 15.1158 17.9982 13.5907 18 12ZM6.75 12C6.75 10.9617 7.05791 9.94662 7.63479 9.08326C8.21166 8.2199 9.0316 7.547 9.99091 7.14964C10.9502 6.75228 12.0058 6.64831 13.0242 6.85088C14.0426 7.05345 14.9781 7.55347 15.7123 8.28769C16.4465 9.02192 16.9466 9.95738 17.1491 10.9758C17.3517 11.9942 17.2477 13.0498 16.8504 14.0091C16.453 14.9684 15.7801 15.7883 14.9167 16.3652C14.0534 16.9421 13.0384 17.25 12 17.25C10.6081 17.2484 9.27364 16.6948 8.28942 15.7106C7.30519 14.7264 6.75156 13.3919 6.75 12Z" fill="black" fill-opacity="0.8"/>
<path d="M12.375 14.625V14.3148C12.6369 14.3006 12.8901 14.2161 13.1081 14.0704C13.3261 13.9246 13.5009 13.7228 13.6141 13.4863C13.6939 13.273 13.7063 13.0403 13.6497 12.8197C13.5931 12.5991 13.4702 12.4012 13.2975 12.2527C13.0244 12.0242 12.7117 11.8475 12.375 11.7315V10.4513C12.5206 10.4699 12.6556 10.5373 12.7578 10.6427C12.86 10.748 12.9234 10.8849 12.9375 11.031C12.9375 11.1305 12.977 11.2258 13.0473 11.2962C13.1177 11.3665 13.2131 11.406 13.3125 11.406C13.412 11.406 13.5073 11.3665 13.5777 11.2962C13.648 11.2258 13.6875 11.1305 13.6875 11.031C13.674 10.684 13.5323 10.3543 13.2899 10.1056C13.0475 9.85692 12.7216 9.70688 12.375 9.68449V9.375C12.375 9.27554 12.3355 9.18016 12.2652 9.10983C12.1948 9.03951 12.0995 9 12 9C11.9006 9 11.8052 9.03951 11.7348 9.10983C11.6645 9.18016 11.625 9.27554 11.625 9.375V9.68525C11.3631 9.69945 11.1099 9.78386 10.8919 9.92963C10.6739 10.0754 10.4991 10.2772 10.3859 10.5137C10.3061 10.727 10.2937 10.9597 10.3503 11.1803C10.4069 11.4009 10.5299 11.5988 10.7025 11.7473C10.9757 11.9758 11.2883 12.1525 11.625 12.2685V13.5486C11.4788 13.5297 11.3433 13.4615 11.241 13.3553C11.1388 13.2491 11.0758 13.1111 11.0625 12.9642C11.0619 12.8648 11.0218 12.7696 10.951 12.6998C10.8802 12.6299 10.7846 12.591 10.6851 12.5916C10.5857 12.5922 10.4905 12.6324 10.4207 12.7031C10.3508 12.7739 10.3119 12.8695 10.3125 12.969C10.326 13.316 10.4677 13.6457 10.7101 13.8944C10.9525 14.1431 11.2784 14.2931 11.625 14.3155V14.625C11.625 14.7245 11.6645 14.8198 11.7348 14.8902C11.8052 14.9605 11.9006 15 12 15C12.0995 15 12.1948 14.9605 12.2652 14.8902C12.3355 14.8198 12.375 14.7245 12.375 14.625ZM12.7859 12.8011C12.8475 12.8475 12.8932 12.9119 12.9166 12.9854C12.94 13.059 12.94 13.1379 12.9165 13.2114C12.8612 13.3089 12.783 13.3915 12.6887 13.452C12.5943 13.5125 12.4867 13.549 12.375 13.5585V12.5458C12.5236 12.6105 12.662 12.6965 12.7859 12.8011ZM11.2141 11.1989C11.1525 11.1525 11.1068 11.0881 11.0834 11.0146C11.06 10.941 11.0601 10.8621 11.0836 10.7886C11.1388 10.6911 11.217 10.6085 11.3113 10.548C11.4057 10.4875 11.5133 10.451 11.625 10.4415V11.4542C11.4764 11.3895 11.338 11.3035 11.2141 11.1989Z" fill="black" fill-opacity="0.8"/>
<path d="M23.981 11.3197C23.7892 8.38736 22.5383 5.62463 20.4613 3.54581C18.3843 1.46699 15.6227 0.213739 12.6905 0.019358C9.58629 -0.167424 6.53185 0.865331 4.17793 2.89759L2.51495 1.23482C2.46251 1.18238 2.3957 1.14666 2.32296 1.13219C2.25023 1.11772 2.17483 1.12514 2.10631 1.15352C2.03779 1.1819 1.97923 1.22996 1.93802 1.29162C1.89682 1.35329 1.87483 1.42578 1.87483 1.49995V6.74995C1.87483 6.8494 1.91434 6.94479 1.98466 7.01511C2.05499 7.08544 2.15037 7.12495 2.24983 7.12495H7.49983C7.57399 7.12495 7.64649 7.10296 7.70815 7.06175C7.76982 7.02055 7.81788 6.96198 7.84626 6.89346C7.87464 6.82494 7.88206 6.74955 7.86759 6.67681C7.85311 6.60407 7.8174 6.53726 7.76495 6.48482L6.3078 5.02767C8.06254 3.58744 10.2995 2.86866 12.5647 3.01716C14.2866 3.12548 15.9411 3.7264 17.3311 4.74836C18.7212 5.77032 19.7882 7.17025 20.4052 8.78146C21.0221 10.3927 21.163 12.1472 20.8111 13.8363C20.4591 15.5253 19.6291 17.0775 18.42 18.3082C17.2108 19.5389 15.6734 20.3961 13.9909 20.7778C12.3084 21.1595 10.5516 21.0496 8.92974 20.4611C7.3079 19.8727 5.88936 18.8305 4.84303 17.4587C3.79671 16.0869 3.1667 14.4433 3.02803 12.7236C2.96706 11.9506 3.00465 11.173 3.1399 10.4095C3.18025 10.1889 3.17163 9.96223 3.11464 9.74539C3.05765 9.52855 2.9537 9.32688 2.81013 9.15467C2.66988 8.98754 2.49449 8.85341 2.29646 8.76185C2.09842 8.67028 1.88263 8.62354 1.66445 8.62495C1.3167 8.62294 0.979255 8.74291 0.710812 8.96398C0.442368 9.18505 0.259919 9.49323 0.195202 9.83491C-0.112025 11.518 -0.056066 13.2474 0.359331 14.9071C0.774728 16.5669 1.53997 18.1187 2.60382 19.4587C3.66766 20.7986 5.00554 21.8958 6.52786 22.6768C8.05018 23.4577 9.72179 23.9043 11.4307 23.9868C11.6162 23.9954 11.8006 23.9996 11.9854 23.9996C13.6197 24.0015 15.2372 23.6696 16.7387 23.0242C18.2402 22.3788 19.5941 21.4334 20.7173 20.2462C21.8404 19.0589 22.7093 17.6548 23.2705 16.1198C23.8317 14.5849 24.0735 12.9514 23.981 11.3197ZM19.9904 19.9189C18.2977 21.624 16.1038 22.7426 13.7297 23.1111C11.3555 23.4796 8.92572 23.0786 6.79588 21.9667C4.66603 20.8549 2.94792 19.0906 1.89293 16.9321C0.837947 14.7735 0.501474 12.334 0.932748 9.97041C0.966661 9.79986 1.05956 9.6467 1.19513 9.53781C1.3307 9.42893 1.50029 9.37127 1.67414 9.37495C1.78117 9.37406 1.88706 9.39705 1.98408 9.44226C2.0811 9.48746 2.16682 9.55373 2.235 9.63624C2.30808 9.72441 2.36089 9.82757 2.38968 9.93841C2.41847 10.0493 2.42255 10.1651 2.40162 10.2777C2.16236 11.6127 2.2042 12.983 2.52446 14.301C2.84471 15.6189 3.43635 16.8556 4.26158 17.932C5.0868 19.0084 6.12747 19.9009 7.31709 20.5523C8.50672 21.2038 9.81915 21.6 11.1705 21.7155C12.4555 21.8251 13.7494 21.6786 14.9774 21.2847C16.2054 20.8907 17.343 20.2571 18.3244 19.4205C19.3058 18.5839 20.1115 17.5609 20.6949 16.4108C21.2782 15.2606 21.6276 14.0062 21.7228 12.7201C21.8181 11.434 21.6572 10.1418 21.2496 8.9183C20.842 7.6948 20.1958 6.5643 19.3483 5.59226C18.5008 4.62022 17.4689 3.82596 16.3124 3.25545C15.1558 2.68494 13.8976 2.34953 12.6105 2.26862C11.3223 2.18417 10.0302 2.35812 8.81012 2.78024C7.59009 3.20235 6.46676 3.86412 5.50617 4.72663C5.46815 4.76064 5.43747 4.80204 5.416 4.84831C5.39453 4.89458 5.38272 4.94474 5.3813 4.99573C5.37988 5.04672 5.38887 5.09746 5.40773 5.14486C5.42659 5.19225 5.45491 5.2353 5.49098 5.27137L6.59455 6.37495H2.62483V2.40522L3.89723 3.67762C3.96551 3.7458 4.05742 3.78505 4.15388 3.78723C4.25034 3.78942 4.34394 3.75436 4.41523 3.68934C5.52148 2.67511 6.82049 1.89383 8.23491 1.392C9.64934 0.890166 11.1503 0.678044 12.6484 0.768259C14.8104 0.893001 16.8904 1.6391 18.6387 2.91697C20.3871 4.19485 21.7295 5.95019 22.5047 7.97225C23.2799 9.99431 23.455 12.1972 23.009 14.3163C22.563 16.4354 21.5149 18.3808 19.9904 19.9189Z" fill="black" fill-opacity="0.8"/>
</svg>
