<svg width="24" height="24" viewBox="0 0 24 24" fill="none" xmlns="http://www.w3.org/2000/svg">
<g clip-path="url(#clip0_1969_2728)">
<path d="M12.544 9.53998V10.7466C12.544 11.1299 12.6207 11.4514 12.7716 11.7019C12.9799 12.0476 13.322 12.2457 13.7103 12.2457C14.0908 12.2457 14.469 12.0604 14.8342 11.6953L18.8197 7.70984C19.6946 6.83478 19.6946 5.41095 18.8195 4.53589L14.8342 0.550415C14.469 0.18512 14.0908 0 13.7103 0C13.1299 0 12.544 0.463623 12.544 1.49908V2.59497C6.88564 2.92914 2.20144 7.27148 1.50527 12.9567C1.46627 13.2742 1.64681 13.5782 1.94436 13.6959C2.02859 13.7292 2.11629 13.7454 2.2029 13.7454C2.42226 13.7454 2.63503 13.6426 2.77053 13.4575C4.63784 10.9061 7.63601 9.38287 10.7905 9.38287C11.3752 9.38287 11.9628 9.43561 12.544 9.53998ZM3.53829 10.6025C5.06869 6.69397 8.87765 3.98053 13.2471 3.98053C13.6355 3.98053 13.9502 3.66577 13.9502 3.2774V1.65527L17.8253 5.53015C18.1519 5.85699 18.1519 6.38873 17.8253 6.71558L13.9502 10.5905V8.96814C13.9502 8.64221 13.7263 8.35895 13.409 8.28387C12.5473 8.08008 11.6662 7.97662 10.7905 7.97662C8.97781 7.97662 7.17458 8.41534 5.57571 9.24554C4.85116 9.62164 4.16707 10.0783 3.53829 10.6025Z" fill="black" fill-opacity="0.7"/>
<path d="M22.0432 10.3033C21.7457 10.1855 21.406 10.2837 21.217 10.5418C19.3497 13.0931 16.3517 14.6163 13.197 14.6163C12.6125 14.6163 12.0249 14.5636 11.4436 14.4592V13.2525C11.4436 12.2171 10.8578 11.7535 10.2772 11.7535C9.89671 11.7535 9.5186 11.9388 9.15349 12.3041L5.16801 16.2893C4.29295 17.1644 4.29295 18.5882 5.16801 19.4635L9.15349 23.4488C9.5186 23.8141 9.89671 23.9992 10.2772 23.9992C10.8577 23.9992 11.4436 23.5356 11.4436 22.5001V21.4042C17.1021 21.07 21.7861 16.7277 22.4823 11.0426C22.5213 10.725 22.3407 10.421 22.0432 10.3033ZM10.7405 20.0187C10.3521 20.0187 10.0373 20.3334 10.0373 20.7218V22.3439L6.16246 18.4692C5.83562 18.1422 5.83562 17.6105 6.16228 17.2838L10.0373 13.4087V15.031C10.0373 15.3572 10.2615 15.6404 10.5788 15.7155C11.4407 15.9191 12.3216 16.0226 13.197 16.0226C15.0099 16.0226 16.8132 15.5838 18.4118 14.7538C19.1364 14.3775 19.8205 13.9211 20.4493 13.3968C18.9189 17.3052 15.1099 20.0187 10.7405 20.0187Z" fill="black" fill-opacity="0.7"/>
</g>
<defs>
<clipPath id="clip0_1969_2728">
<rect width="24" height="24" fill="white"/>
</clipPath>
</defs>
</svg>
