<svg width="24" height="24" viewBox="0 0 24 24" fill="none" xmlns="http://www.w3.org/2000/svg">
<path d="M9.89062 0C4.83553 0 0.75 4.18434 0.75 9.23438C0.75 11.2282 1.38075 13.1231 2.57405 14.7142L9.32812 23.7188C9.46092 23.8958 9.66928 24 9.89062 24C10.112 24 10.3203 23.8958 10.4531 23.7188L12.0047 21.6502C13.1658 23.0826 14.9386 24 16.9219 24C20.4112 24 23.25 21.1612 23.25 17.6719C23.25 14.8073 21.3366 12.3816 18.7208 11.6047C18.927 10.8352 19.0312 10.041 19.0312 9.23438C19.0312 4.17848 14.9405 0 9.89062 0ZM9.89062 22.125L3.69905 13.8704C2.68973 12.5247 2.15625 10.9216 2.15625 9.23438C2.15625 4.91794 5.62589 1.40625 9.89062 1.40625C14.1554 1.40625 17.625 4.91794 17.625 9.23438C17.625 9.95841 17.5257 10.6702 17.3299 11.3573C17.1949 11.3486 17.059 11.3438 16.9219 11.3438C16.5481 11.3438 16.1819 11.3766 15.8258 11.439C16.085 10.7418 16.2188 9.99933 16.2188 9.23438C16.2188 5.74997 13.4008 2.8125 9.89062 2.8125C6.37875 2.8125 3.5625 5.75184 3.5625 9.23438C3.5625 12.7237 6.4013 15.5625 9.89062 15.5625C10.2598 15.5625 10.6283 15.5295 10.9908 15.4657C10.7343 16.1529 10.5938 16.8963 10.5938 17.6719C10.5938 18.6391 10.8122 19.5562 11.2019 20.3769L9.89062 22.125ZM12.0217 13.6723C11.3555 13.9935 10.6393 14.1562 9.89062 14.1562C7.1767 14.1562 4.96875 11.9483 4.96875 9.23438C4.96875 6.46875 7.1767 4.21875 9.89062 4.21875C12.6045 4.21875 14.8125 6.46875 14.8125 9.23438C14.8125 10.2874 14.4866 11.2852 13.8702 12.1298C13.1597 12.5226 12.5324 13.0479 12.0217 13.6723ZM21.7933 16.9688H19.7344C19.3461 16.9688 19.0312 17.2836 19.0312 17.6719C19.0312 18.0602 19.3461 18.3745 19.7344 18.3745H21.7933C21.4841 20.5268 19.7773 22.2341 17.625 22.5433V20.4844C17.625 20.0961 17.3102 19.7812 16.9219 19.7812C16.5336 19.7812 16.2188 20.0961 16.2188 20.4844V22.5433C14.0664 22.2341 12.3597 20.5273 12.0504 18.375H14.1094C14.4977 18.375 14.8125 18.0602 14.8125 17.6719C14.8125 17.2836 14.4977 16.9688 14.1094 16.9688H12.0504C12.3597 14.8164 14.0664 13.1097 16.2188 12.8004V14.8594C16.2188 15.2477 16.5336 15.5625 16.9219 15.5625C17.3102 15.5625 17.625 15.2477 17.625 14.8594V12.8004C19.7773 13.1097 21.4841 14.8164 21.7933 16.9688Z" fill="black" fill-opacity="0.8"/>
<path d="M16.9219 18.375C17.3102 18.375 17.625 18.0602 17.625 17.6719C17.625 17.2835 17.3102 16.9688 16.9219 16.9688C16.5335 16.9688 16.2188 17.2835 16.2188 17.6719C16.2188 18.0602 16.5335 18.375 16.9219 18.375Z" fill="black" fill-opacity="0.8"/>
</svg>
