<svg width="24" height="24" viewBox="0 0 24 24" fill="none" xmlns="http://www.w3.org/2000/svg">
<path d="M23.2501 8.99967H22.7612L20.6449 3.61289C20.6085 3.52038 20.5369 3.44609 20.4458 3.40636C20.3547 3.36663 20.2515 3.36471 20.1589 3.40102L19.2521 3.75727L16.1215 0.490547C16.0873 0.454912 16.0465 0.426363 16.0013 0.406535C15.9561 0.386708 15.9075 0.375991 15.8582 0.375C15.7593 0.377277 15.6645 0.414456 15.5905 0.479953L12.088 3.85495C12.0164 3.92401 11.9751 4.01869 11.9733 4.11816C11.9715 4.21764 12.0092 4.31376 12.0783 4.38539C12.1474 4.45702 12.242 4.49828 12.3415 4.5001C12.441 4.50192 12.5371 4.46415 12.6087 4.39509L15.8402 1.281L18.4976 4.0537L17.745 4.34934L17.1157 3.69342C17.0467 3.62158 16.952 3.58009 16.8524 3.57806C16.7532 3.57748 16.6575 3.61506 16.5852 3.68302C16.3708 3.88858 16.0839 4.00105 15.7869 3.99591C15.6396 3.9933 15.4943 3.96144 15.3593 3.90219C15.2244 3.84294 15.1027 3.75748 15.001 3.65077C14.9669 3.6151 14.9261 3.58654 14.8809 3.56671C14.8357 3.54688 14.7871 3.53618 14.7377 3.53522C14.6389 3.53757 14.5441 3.57474 14.47 3.64017L10.9729 7.00992L9.15339 7.72472L11.4413 5.52009C11.4767 5.4859 11.5051 5.44506 11.5248 5.3999C11.5445 5.35474 11.5551 5.30614 11.556 5.25688C11.5569 5.20763 11.5481 5.15868 11.5301 5.11283C11.512 5.06698 11.4852 5.02512 11.451 4.98966C11.4168 4.95419 11.3759 4.92581 11.3308 4.90612C11.2856 4.88644 11.237 4.87585 11.1878 4.87495C11.1385 4.87405 11.0896 4.88286 11.0437 4.90087C10.9979 4.91889 10.956 4.94576 10.9205 4.97995L7.32771 8.44219L5.9081 9H2.25011C2.15066 9 2.05527 9.03951 1.98495 9.10983C1.91462 9.18016 1.87511 9.27554 1.87511 9.375V10.5844L0.613144 11.0798C0.56727 11.0977 0.525387 11.1245 0.489894 11.1587C0.454402 11.1929 0.425995 11.2337 0.406302 11.2788C0.386609 11.324 0.376015 11.3726 0.375127 11.4219C0.374239 11.4711 0.383075 11.5201 0.401128 11.5659L1.41288 14.1414L0.489722 15.031C0.418219 15.0999 0.376986 15.1944 0.37507 15.2937C0.373154 15.393 0.410713 15.489 0.479503 15.5607L1.87511 17.0168V20.625C1.87511 20.7245 1.91462 20.8198 1.98495 20.8902C2.05527 20.9605 2.15066 21 2.25011 21H5.70321L8.36693 23.5223C8.4364 23.588 8.52837 23.6247 8.62402 23.6249C8.71967 23.6251 8.81177 23.5887 8.88147 23.5232L11.5659 21H20.6251C20.7246 21 20.82 20.9605 20.8903 20.8902C20.9606 20.8198 21.0001 20.7245 21.0001 20.625C21.0001 20.5255 20.9606 20.4302 20.8903 20.3598C20.82 20.2895 20.7246 20.25 20.6251 20.25H2.62511V9.74967H22.8751V20.25H22.1251C22.0257 20.25 21.9303 20.2895 21.8599 20.3598C21.7896 20.4302 21.7501 20.5255 21.7501 20.625C21.7501 20.7245 21.7896 20.8198 21.8599 20.8902C21.9303 20.9605 22.0257 21 22.1251 21H23.2501C23.3496 21 23.445 20.9605 23.5153 20.8902C23.5856 20.8198 23.6251 20.7245 23.6251 20.625V9.37467C23.6251 9.27522 23.5856 9.17983 23.5153 9.10951C23.445 9.03918 23.3496 8.99967 23.2501 8.99967ZM8.62586 22.7344L6.79399 21H10.4711L8.62586 22.7344ZM1.87511 11.3896V13.2667L1.23644 11.6406L1.87511 11.3896ZM1.2798 15.3117L1.87511 14.7379V15.9332L1.2798 15.3117ZM21.9554 8.99967H21.1494L20.3453 6.95419C20.3089 6.86167 20.2373 6.78739 20.1462 6.74766C20.0551 6.70793 19.9519 6.70601 19.8594 6.74231C19.5816 6.85081 19.2721 6.84476 18.9988 6.72549C18.7254 6.60623 18.5105 6.38347 18.4011 6.10603C18.3647 6.01351 18.2931 5.93923 18.202 5.89951C18.1108 5.85979 18.0077 5.85788 17.9151 5.8942L10.01 8.99967H7.95874L20.0838 4.23614L21.9554 8.99967ZM20.3437 8.99967H12.0611L17.8752 6.71578C18.0759 7.02379 18.3624 7.26623 18.6993 7.41311C19.0363 7.55999 19.4089 7.60487 19.7711 7.54219L20.3437 8.99967ZM14.7468 4.4153C15.0483 4.62438 15.405 4.73933 15.7719 4.74563C16.1382 4.75095 16.4983 4.65057 16.809 4.4565L16.9904 4.64573L12.7982 6.29269L14.7468 4.4153Z" fill="black" fill-opacity="0.8"/>
<path d="M22.125 17.6251L22.1246 12.3751C22.1246 12.2756 22.0851 12.1802 22.0148 12.1099C21.9445 12.0396 21.8491 12.0001 21.7496 12.0001C21.4514 11.9996 21.1655 11.8808 20.9547 11.6699C20.7439 11.4589 20.6253 11.173 20.625 10.8748C20.625 10.7753 20.5855 10.6799 20.5152 10.6096C20.4448 10.5393 20.3495 10.4998 20.25 10.4998H5.25C5.15054 10.4998 5.05516 10.5393 4.98484 10.6096C4.91451 10.6799 4.875 10.7753 4.875 10.8748C4.87465 11.173 4.75603 11.459 4.54513 11.67C4.33424 11.8809 4.04829 11.9997 3.75 12.0001C3.65054 12.0001 3.55516 12.0396 3.48484 12.1099C3.41451 12.1802 3.375 12.2756 3.375 12.3751V17.6251C3.375 17.7245 3.41451 17.8199 3.48484 17.8902C3.55516 17.9606 3.65054 18.0001 3.75 18.0001C4.04827 18.0004 4.33422 18.1191 4.54513 18.33C4.75603 18.5409 4.87467 18.8268 4.875 19.1251C4.875 19.2245 4.91451 19.3199 4.98484 19.3902C5.05516 19.4606 5.15054 19.5001 5.25 19.5001H20.25C20.3495 19.5001 20.4448 19.4606 20.5152 19.3902C20.5855 19.3199 20.625 19.2245 20.625 19.1251C20.6253 18.8268 20.744 18.5409 20.9549 18.33C21.1658 18.1191 21.4517 18.0004 21.75 18.0001C21.8495 18.0001 21.9448 17.9606 22.0152 17.8902C22.0855 17.8199 22.125 17.7245 22.125 17.6251ZM5.5875 18.7501C5.5133 18.3901 5.33523 18.0597 5.07531 17.7999C4.81538 17.54 4.485 17.362 4.125 17.2878V12.7126C4.48496 12.6383 4.81529 12.4602 5.07516 12.2003C5.33503 11.9404 5.51306 11.6101 5.58727 11.2501H10.6685C10.0372 11.7537 9.53517 12.4876 9.24797 13.3861C9.23153 13.4333 9.22472 13.4834 9.22794 13.5333C9.23115 13.5833 9.24432 13.6321 9.26668 13.6768C9.28903 13.7216 9.32012 13.7614 9.35811 13.794C9.3961 13.8265 9.44022 13.8512 9.48787 13.8664C9.53552 13.8817 9.58574 13.8872 9.63558 13.8828C9.68541 13.8783 9.73385 13.8639 9.77804 13.8405C9.82223 13.817 9.86128 13.7849 9.89288 13.7461C9.92449 13.7073 9.94801 13.6626 9.96206 13.6146C10.4213 12.1782 11.5155 11.2501 12.75 11.2501C14.4042 11.2501 15.75 12.9323 15.75 15.0001C15.75 17.0679 14.4042 18.7501 12.75 18.7501C11.0958 18.7501 9.75 17.0679 9.75 15.0001C9.75 14.9006 9.71049 14.8052 9.64017 14.7349C9.56984 14.6646 9.47446 14.6251 9.375 14.6251C9.27554 14.6251 9.18016 14.6646 9.10983 14.7349C9.03951 14.8052 9 14.9006 9 15.0001C9 16.5643 9.66942 17.9434 10.6817 18.7501H5.5875ZM21.375 17.2878C21.015 17.362 20.6847 17.54 20.4248 17.7999C20.165 18.0598 19.9869 18.3901 19.9127 18.7501H14.8183C15.8306 17.9434 16.5 16.5643 16.5 15.0001C16.5 13.4358 15.8305 12.0566 14.8181 11.2501H19.9127C19.9869 11.6101 20.1649 11.9404 20.4248 12.2004C20.6847 12.4603 21.015 12.6383 21.375 12.7126V17.2878Z" fill="black" fill-opacity="0.8"/>
<path d="M12.75 16.875C12.5512 16.8748 12.3605 16.7957 12.2199 16.6551C12.0793 16.5145 12.0002 16.3238 12 16.125C12 16.0255 11.9605 15.9302 11.8902 15.8598C11.8198 15.7895 11.7245 15.75 11.625 15.75C11.5255 15.75 11.4302 15.7895 11.3598 15.8598C11.2895 15.9302 11.25 16.0255 11.25 16.125C11.251 16.4567 11.362 16.7786 11.5655 17.0404C11.7691 17.3022 12.0538 17.4891 12.375 17.5718V18C12.375 18.0995 12.4145 18.1948 12.4848 18.2652C12.5552 18.3355 12.6505 18.375 12.75 18.375C12.8495 18.375 12.9448 18.3355 13.0152 18.2652C13.0855 18.1948 13.125 18.0995 13.125 18V17.572C13.4785 17.4815 13.7869 17.265 13.992 16.9631C14.1971 16.6613 14.2849 16.2949 14.2388 15.9329C14.1927 15.5709 14.016 15.2382 13.7418 14.9973C13.4677 14.7564 13.1149 14.624 12.75 14.625C12.6017 14.625 12.4567 14.581 12.3333 14.4986C12.21 14.4162 12.1139 14.2991 12.0571 14.162C12.0003 14.025 11.9855 13.8742 12.0144 13.7287C12.0433 13.5832 12.1148 13.4496 12.2197 13.3447C12.3246 13.2398 12.4582 13.1683 12.6037 13.1394C12.7492 13.1105 12.9 13.1253 13.037 13.1821C13.1741 13.2389 13.2912 13.335 13.3736 13.4583C13.456 13.5817 13.5 13.7267 13.5 13.875C13.5 13.9745 13.5395 14.0698 13.6098 14.1402C13.6802 14.2105 13.7755 14.25 13.875 14.25C13.9745 14.25 14.0698 14.2105 14.1402 14.1402C14.2105 14.0698 14.25 13.9745 14.25 13.875C14.249 13.5434 14.138 13.2214 13.9345 12.9596C13.7309 12.6978 13.4462 12.5109 13.125 12.4282V12C13.125 11.9005 13.0855 11.8052 13.0152 11.7348C12.9448 11.6645 12.8495 11.625 12.75 11.625C12.6505 11.625 12.5552 11.6645 12.4848 11.7348C12.4145 11.8052 12.375 11.9005 12.375 12V12.4282C12.0217 12.5189 11.7136 12.7355 11.5087 13.0372C11.3038 13.339 11.2161 13.7052 11.2621 14.0671C11.3082 14.429 11.4848 14.7616 11.7588 15.0024C12.0327 15.2432 12.3852 15.3757 12.75 15.375C12.9489 15.375 13.1397 15.454 13.2803 15.5947C13.421 15.7353 13.5 15.9261 13.5 16.125C13.5 16.3239 13.421 16.5147 13.2803 16.6553C13.1397 16.796 12.9489 16.875 12.75 16.875Z" fill="black" fill-opacity="0.8"/>
</svg>
