<svg width="24" height="20" viewBox="0 0 24 20" fill="none" xmlns="http://www.w3.org/2000/svg">
<path d="M21.2 14.4C20.6488 14.4 20.136 14.5624 19.7024 14.8384L19.1048 14.1412C20.1108 13.3772 21.3872 13.1632 23.5212 13.5924C23.64 13.616 23.7608 13.5856 23.8536 13.5096C23.946 13.4332 24 13.32 24 13.2C24 12.1128 22.7512 10.8 21.2 10.8C20.9204 10.8 20.6548 10.832 20.3968 10.8792C20.3628 8.1532 19.8828 6.9172 18.2828 5.31722L18.1564 5.1908C17.6412 4.67761 17.294 4.32722 17.0432 3.80841C17.5688 3.93042 18.1612 3.99998 18.8 3.99998C19.0212 3.99998 19.2 3.82078 19.2 3.6V0.399984C19.2 0.179203 19.0212 0 18.8 0C16.7115 0 15.098 0.722016 14.84 1.71919L12.2424 2.83238C12.0392 2.91919 11.9452 3.15436 12.0324 3.35756C12.0972 3.50916 12.2448 3.59995 12.4 3.59995C12.4528 3.59995 12.5064 3.58955 12.5576 3.56714L14.0284 2.93677C14.0312 2.94398 14.03 2.95158 14.0332 2.95837C15.7872 7.00758 16.1483 9.65639 15.1384 11.0564C14.2992 12.2191 12.44 12.6615 9.30319 12.4384L9.98841 9.6968C9.996 9.6652 9.99998 9.63281 9.99998 9.6C9.99998 9.32161 9.9008 9.06881 9.74156 8.86481C9.90038 8.68762 9.99998 8.45602 9.99998 8.20003V7.80005C9.99998 7.24884 9.55158 6.80006 9 6.80006H2.60002C2.04844 6.80006 1.60003 7.24884 1.60003 7.80005V8.20003C1.60003 8.34281 1.63125 8.47805 1.68525 8.60123C0.687984 9.18117 0 10.9656 0 13.2C0 14.588 0.938812 15.1644 1.818 15.4516C1.42322 15.9448 1.2 16.56 1.2 17.2C1.2 18.744 2.45639 20 3.99998 20C5.54358 20 6.79997 18.744 6.79997 17.2C6.79997 16.9684 6.76195 16.7424 6.70636 16.52C7.81116 16.6695 8.88478 16.7492 9.93478 16.7492C12.1628 16.7492 14.294 16.408 16.4388 15.734C16.416 15.9555 16.4 16.178 16.4 16.4C16.4 16.5795 16.5195 16.7372 16.6924 16.7852C16.728 16.7952 16.7644 16.8 16.8 16.8C16.9375 16.8 17.0687 16.7288 17.1424 16.6068C17.6112 15.83 18.0428 15.1864 18.5132 14.68L19.0952 15.3592C18.664 15.852 18.4 16.4952 18.4 17.2C18.4 18.744 19.6564 20 21.2 20C22.7436 20 24 18.744 24 17.2C24 15.656 22.7436 14.4 21.2 14.4ZM18.4 0.81V1.59998H17.6C17.3788 1.59998 17.2 1.77919 17.2 1.99997C17.2 2.22075 17.3788 2.39995 17.6 2.39995H18.4V3.18994C16.678 3.10153 15.6 2.45513 15.6 1.99992C15.6 1.54472 16.678 0.898359 18.4 0.81ZM2.4 7.8C2.4 7.69158 2.49159 7.59998 2.60002 7.59998H9C9.10842 7.59998 9.20002 7.69158 9.20002 7.8V8.19999C9.20002 8.30841 9.10842 8.4 9 8.4H2.60002C2.49159 8.4 2.4 8.30841 2.4 8.19999V7.8ZM3.99998 19.2C2.8972 19.2 1.99997 18.3028 1.99997 17.2C1.99997 16.632 2.24278 16.0884 2.66677 15.7092L2.68716 15.6908C3.22073 15.8352 3.74756 15.9683 4.26356 16.0831L3.66717 16.9779C3.54436 17.1615 3.59395 17.4104 3.77798 17.5328C3.84637 17.5784 3.92358 17.6 3.99956 17.6C4.12875 17.6 4.25597 17.5376 4.33275 17.422L5.10877 16.258C5.35275 16.3052 5.59397 16.3476 5.83434 16.388L5.88595 16.5328C5.96156 16.7464 5.99995 16.9712 5.99995 17.2C6 18.3028 5.10281 19.2 3.99998 19.2ZM16.5896 14.8472C12.1656 16.3228 7.81758 16.3136 2.49356 14.8112C1.08797 14.4728 0.799969 13.9224 0.799969 13.2C0.799969 10.8428 1.64316 9.20002 2.39995 9.20002H8.79994C9.00675 9.20002 9.17714 9.35761 9.19795 9.5588L8.41195 12.7028C8.38355 12.8164 8.40595 12.9364 8.47397 13.032C8.54198 13.1276 8.64839 13.188 8.76478 13.1984C12.4924 13.5272 14.7248 12.996 15.7864 11.5248C16.9924 9.85364 16.6684 7.03083 14.7672 2.64084C14.7644 2.63484 14.7592 2.63086 14.7564 2.62523L14.9432 2.54522C15.1388 2.916 15.5316 3.23761 16.0684 3.48361C16.3856 4.54603 16.896 5.06442 17.5916 5.75761L17.7172 5.88281C19.194 7.35961 19.5892 8.4472 19.5991 11.1C18.046 11.7116 16.9964 13.1904 16.5896 14.8472ZM17.4644 14.682C17.9968 12.9876 19.312 11.6 21.2 11.6C22.0628 11.6 22.764 12.1548 23.0552 12.6976C20.12 12.2548 18.6492 13.148 17.4644 14.682ZM21.2 19.2C20.0972 19.2 19.2 18.3028 19.2 17.2C19.2 16.7384 19.3636 16.3184 19.6272 15.9796L20.8964 17.4604C20.9752 17.5524 21.0876 17.6 21.2 17.6C21.292 17.6 21.3848 17.5684 21.46 17.5035C21.628 17.36 21.6476 17.1071 21.5033 16.9395L20.2344 15.4591C20.5224 15.2992 20.848 15.1999 21.2 15.1999C22.3028 15.1999 23.2 16.0971 23.2 17.1999C23.2 18.3028 22.3028 19.2 21.2 19.2Z" fill="black" fill-opacity="0.8"/>
</svg>
