<svg width="20" height="20" viewBox="0 0 20 20" fill="none" xmlns="http://www.w3.org/2000/svg">
<path d="M14.9229 13.4098C14.9229 13.7407 15.192 14.0098 15.5229 14.0098C15.8537 14.0098 16.1229 13.7407 16.1229 13.4098C16.1229 13.079 15.8537 12.8098 15.5229 12.8098C15.192 12.8098 14.9229 13.079 14.9229 13.4098ZM15.7229 13.4098C15.7229 13.5202 15.633 13.6098 15.5229 13.6098C15.4127 13.6098 15.3229 13.5202 15.3229 13.4098C15.3229 13.2995 15.4127 13.2098 15.5229 13.2098C15.633 13.2098 15.7229 13.2995 15.7229 13.4098Z" fill="black" fill-opacity="0.8"/>
<path d="M10 5.08579C10.2383 5.08579 10.4324 5.27974 10.4324 5.51821C10.4324 5.75649 10.2383 5.95044 10 5.95044C9.86211 5.95044 9.73594 5.88716 9.65391 5.77681C9.52188 5.59985 9.27031 5.56333 9.09414 5.69556C8.9168 5.82759 8.88047 6.07817 9.0125 6.25532C9.1613 6.45442 9.36956 6.59456 9.6 6.67466V6.77896C9.6 6.99985 9.77891 7.17896 10 7.17896C10.2211 7.17896 10.4 6.99985 10.4 6.77896V6.67813C10.8827 6.51106 11.2324 6.05696 11.2324 5.51821C11.2324 4.83872 10.6797 4.28579 10 4.28579C9.76172 4.28579 9.56758 4.09185 9.56758 3.85356C9.56758 3.61528 9.76172 3.42134 10 3.42134C10.1742 3.42134 10.3305 3.52485 10.3984 3.68521C10.4844 3.88892 10.718 3.98345 10.9227 3.8981C11.1258 3.81196 11.2211 3.57739 11.1352 3.37388C10.9963 3.04478 10.7255 2.80173 10.4 2.69016V2.59263C10.4 2.37173 10.2211 2.19263 10 2.19263C9.77891 2.19263 9.6 2.37173 9.6 2.59263V2.69365C9.11726 2.86069 8.76758 3.31482 8.76758 3.85356C8.76758 4.53306 9.32031 5.08579 10 5.08579Z" fill="black" fill-opacity="0.8"/>
<path d="M2.87012 19.6019H17.3482C18.2838 19.6019 19.0447 18.8407 19.0447 17.9052V15.2176C19.0448 15.2149 19.0463 15.2126 19.0463 15.2099V11.6099C19.0463 11.6071 19.0448 11.6049 19.0447 11.6021V8.90264C19.0447 7.96709 18.2838 7.20596 17.3482 7.20596H16.958V5.86982C16.958 4.93467 16.1955 4.17393 15.258 4.17393H14.7858C14.2624 1.96733 12.3042 0.397949 10.0021 0.397949C7.69636 0.397949 5.73572 1.96943 5.21436 4.17393H2.93027C1.88965 4.17393 1.02402 4.96025 0.958789 5.9624C0.956738 5.99241 0.96272 6.02097 0.962012 6.05078C0.96062 6.06431 0.954102 6.07605 0.954102 6.08994V17.6858C0.954102 18.198 1.15332 18.679 1.51543 19.0407C1.87676 19.4026 2.35801 19.6019 2.87012 19.6019ZM18.2447 14.8099H15.6221C15.2545 14.8099 14.8939 14.6603 14.633 14.3991C14.3682 14.1339 14.2221 13.7825 14.2221 13.4099C14.2221 12.638 14.8502 12.0099 15.6221 12.0099H18.2447V14.8099ZM18.2447 8.90264V11.2099H15.6221C14.4092 11.2099 13.4221 12.1968 13.4221 13.4099C13.4221 13.9962 13.6514 14.5483 14.0674 14.9647C14.4771 15.3747 15.0436 15.6099 15.6221 15.6099H18.2447V17.9052C18.2447 18.3995 17.8424 18.8019 17.3482 18.8019H2.87012C2.57207 18.8019 2.2916 18.6858 2.08105 18.4749C1.87012 18.2644 1.7541 17.9841 1.7541 17.6858V7.64114C2.07778 7.87505 2.46272 8.00596 2.87012 8.00596H3.71035H16.558H17.3482C17.8424 8.00596 18.2447 8.4083 18.2447 8.90264ZM16.158 5.86982V7.20596H14.551C14.7967 6.61511 14.9264 5.97632 14.9264 5.32588C14.9264 5.20627 14.9198 5.0895 14.9116 4.97393H15.258C15.7541 4.97393 16.158 5.37588 16.158 5.86982ZM10.0021 1.19795C12.0264 1.19795 13.7365 2.64541 14.0686 4.64463C14.1068 4.8583 14.1264 5.0876 14.1264 5.32588C14.1264 5.98694 13.9607 6.62986 13.6607 7.20596H6.33965C6.03972 6.62986 5.87402 5.98694 5.87402 5.32588C5.87402 5.0876 5.89355 4.8583 5.93262 4.63955C6.26387 2.64541 7.97559 1.19795 10.0021 1.19795ZM2.93027 4.97393H5.08884C5.08059 5.08972 5.07402 5.20647 5.07402 5.32588C5.07402 5.97632 5.20371 6.61511 5.44944 7.20596H3.71035H2.87012C2.57168 7.20596 2.2916 7.08994 2.08105 6.879C1.8498 6.64775 1.73457 6.3417 1.75723 6.01572C1.79512 5.43154 2.31035 4.97393 2.93027 4.97393Z" fill="black" fill-opacity="0.8"/>
</svg>
