<svg width="88" height="58" viewBox="0 0 88 58" fill="none" xmlns="http://www.w3.org/2000/svg">
<path d="M75.4264 35.625V33.4138H85.7453V35.625L78.866 44.9612V45.4526H85.7453V47.6638H75.4264V45.4526L82.3057 35.625H75.4264Z" fill="#009745"/>
<path d="M0 47.1723V14.4956H25.0603C28.0905 20.9654 34.2 33.9051 34.3965 33.9051C34.5931 33.9051 39.556 32.2672 42.0129 31.4482L34.3965 46.681L21.1293 20.1465H3.93103V28.4999H18.6724L21.6207 34.1508H3.93103V42.5042H25.5517L27.5172 47.1723H0Z" fill="#009745"/>
<path d="M47.6638 47.9094L44.9612 47.6637L50.6121 33.6594H53.806L59.2112 47.9094H56.7543L55.5259 44.9611H48.6465L47.6638 47.9094Z" fill="#009745"/>
<path d="M72.7241 47.418V45.2068H66.3362L69.7759 42.2585C71.7414 40.293 72.2328 38.9008 72.2328 38.0818C72.7241 33.9051 69.694 32.5947 68.3017 32.431C63.5845 31.6447 61.8319 35.4611 61.6681 37.3447H64.3707C64.7638 34.3965 66.8276 34.3146 67.8103 34.6422C69.3828 35.4284 69.6121 37.0991 69.5302 37.8361C69.5302 39.9982 64.2888 43.9784 61.6681 45.6982V47.418H72.7241Z" fill="#009745"/>
<path d="M37.5908 30.2198L55.5261 0L49.8753 20.6379L58.7201 18.181L33.4141 57L46.6813 26.7802L37.5908 30.2198Z" fill="black"/>
<path d="M49.6289 42.2586L52.0858 36.3621L54.5427 42.2586H49.6289Z" fill="white"/>
</svg>
