<svg width="109" height="72" viewBox="0 0 109 72" fill="none" xmlns="http://www.w3.org/2000/svg">
<path d="M95.2762 45.0001V42.207H108.311V45.0001L99.621 56.7932V57.4139H108.311V60.207H95.2762V57.4139L103.966 45.0001H95.2762Z" fill="white"/>
<path d="M0 59.5864V18.3105H31.6552C35.4828 26.483 43.2 42.8278 43.4483 42.8278C43.6965 42.8278 49.9655 40.7588 53.069 39.7243L43.4483 58.9657L26.6897 25.4485H4.96552V36.0002H23.5862L27.3103 43.1381H4.96552V53.6899H32.2759L34.7586 59.5864H0Z" fill="white"/>
<path d="M60.2069 60.5174L56.7931 60.2071L63.931 42.5174H67.9655L74.7931 60.5174H71.6897L70.1379 56.7933H61.4483L60.2069 60.5174Z" fill="white"/>
<path d="M91.8621 59.8968V57.1036H83.7931L88.1379 53.3795C90.6207 50.8968 91.2414 49.1381 91.2414 48.1036C91.8621 42.8278 88.0345 41.1726 86.2759 40.9657C80.3172 39.9726 78.1034 44.7933 77.8965 47.1726H81.3103C81.8069 43.4485 84.4138 43.345 85.6552 43.7588C87.6414 44.7519 87.931 46.8623 87.8276 47.7933C87.8276 50.5243 81.2069 55.5519 77.8965 57.7243V59.8968H91.8621Z" fill="white"/>
<path d="M47.4829 38.1724L70.1381 0L63.0001 26.069L74.1725 22.9655L42.207 72L58.9657 33.8276L47.4829 38.1724Z" fill="black"/>
<path d="M62.6895 53.3794L65.7929 45.9312L68.8963 53.3794H62.6895Z" fill="#118845"/>
</svg>
